font.ufo
<glyph name="dollar.S" format="2">
	<unicode hex="0024"/>
	<advance width="540"/>
	<outline>
		<contour>
			<point x="262" y="-12" type="curve" smooth="yes"/>
			<point x="397" y="-12"/>
			<point x="476" y="63"/>
			<point x="476" y="164" type="curve" smooth="yes"/>
			<point x="476" y="356"/>
			<point x="222" y="340"/>
			<point x="222" y="414" type="curve" smooth="yes"/>
			<point x="222" y="438"/>
			<point x="240" y="446"/>
			<point x="270" y="446" type="curve" smooth="yes"/>
			<point x="311" y="446"/>
			<point x="344" y="440"/>
			<point x="396" y="414" type="curve"/>
			<point x="462" y="520" type="line"/>
			<point x="403" y="566"/>
			<point x="336" y="580"/>
			<point x="264" y="580" type="curve" smooth="yes"/>
			<point x="142" y="580"/>
			<point x="58" y="516"/>
			<point x="58" y="412" type="curve" smooth="yes"/>
			<point x="58" y="224"/>
			<point x="312" y="238"/>
			<point x="312" y="156" type="curve" smooth="yes"/>
			<point x="312" y="133"/>
			<point x="296" y="122"/>
			<point x="246" y="122" type="curve" smooth="yes"/>
			<point x="202" y="122"/>
			<point x="164" y="128"/>
			<point x="100" y="168" type="curve"/>
			<point x="34" y="62" type="line"/>
			<point x="104" y="8"/>
			<point x="186" y="-12"/>
		</contour>
		<contour>
			<point x="212" y="-110" type="line"/>
			<point x="324" y="-110" type="line"/>
			<point x="324" y="60" type="line"/>
			<point x="212" y="60" type="line"/>
		</contour>
		<contour>
			<point x="206" y="528" type="line"/>
			<point x="318" y="528" type="line"/>
			<point x="318" y="678" type="line"/>
			<point x="206" y="678" type="line"/>
		</contour>
	</outline>
</glyph>
<glyph name="zero.S" format="2">
	<unicode hex="0030"/>
	<advance width="540"/>
	<outline>
		<contour>
			<point x="270" y="-12" type="curve" smooth="yes"/>
			<point x="406" y="-12"/>
			<point x="500" y="92"/>
			<point x="500" y="288" type="curve" smooth="yes"/>
			<point x="500" y="482"/>
			<point x="406" y="580"/>
			<point x="270" y="580" type="curve" smooth="yes"/>
			<point x="134" y="580"/>
			<point x="40" y="483"/>
			<point x="40" y="288" type="curve" smooth="yes"/>
			<point x="40" y="92"/>
			<point x="134" y="-12"/>
		</contour>
		<contour>
			<point x="270" y="138" type="curve" smooth="yes"/>
			<point x="224" y="138"/>
			<point x="184" y="172"/>
			<point x="184" y="288" type="curve" smooth="yes"/>
			<point x="184" y="406"/>
			<point x="224" y="430"/>
			<point x="270" y="430" type="curve" smooth="yes"/>
			<point x="316" y="430"/>
			<point x="356" y="406"/>
			<point x="356" y="288" type="curve" smooth="yes"/>
			<point x="356" y="172"/>
			<point x="316" y="138"/>
		</contour>
	</outline>
</glyph>
<glyph name="two.S" format="2">
	<unicode hex="0032"/>
	<advance width="540"/>
	<outline>
		<contour>
			<point x="38" y="0" type="line"/>
			<point x="496" y="0" type="line"/>
			<point x="496" y="144" type="line"/>
			<point x="392" y="144" type="line" smooth="yes"/>
			<point x="364" y="144"/>
			<point x="314" y="140"/>
			<point x="282" y="136" type="curve"/>
			<point x="398" y="230"/>
			<point x="460" y="310"/>
			<point x="460" y="408" type="curve" smooth="yes"/>
			<point x="460" y="510"/>
			<point x="374" y="580"/>
			<point x="240" y="580" type="curve" smooth="yes"/>
			<point x="164" y="580"/>
			<point x="112" y="570"/>
			<point x="44" y="530" type="curve"/>
			<point x="82" y="410" type="line"/>
			<point x="136" y="436"/>
			<point x="168" y="446"/>
			<point x="216" y="446" type="curve" smooth="yes"/>
			<point x="262" y="446"/>
			<point x="296" y="420"/>
			<point x="296" y="372" type="curve" smooth="yes"/>
			<point x="296" y="320"/>
			<point x="245" y="261"/>
			<point x="38" y="108" type="curve"/>
		</contour>
	</outline>
</glyph>
<glyph name="seven.S" format="2">
	<unicode hex="0037"/>
	<advance width="540"/>
	<outline>
		<contour>
			<point x="162" y="-40" type="curve"/>
			<point x="324" y="-40" type="line"/>
			<point x="334" y="193"/>
			<point x="356" y="280"/>
			<point x="498" y="446" type="curve"/>
			<point x="498" y="568" type="line"/>
			<point x="44" y="568" type="line"/>
			<point x="44" y="416" type="line"/>
			<point x="326" y="416" type="line"/>
			<point x="211" y="268"/>
			<point x="174" y="161"/>
		</contour>
	</outline>
</glyph>
<glyph name="eight.S" format="2">
	<unicode hex="0038"/>
	<advance width="540"/>
	<outline>
		<contour>
			<point x="274" y="-12" type="curve" smooth="yes"/>
			<point x="408" y="-12"/>
			<point x="494" y="60"/>
			<point x="494" y="162" type="curve" smooth="yes"/>
			<point x="494" y="242"/>
			<point x="452" y="281"/>
			<point x="391" y="315" type="curve"/>
			<point x="391" y="319" type="line"/>
			<point x="444" y="348"/>
			<point x="478" y="394"/>
			<point x="478" y="454" type="curve" smooth="yes"/>
			<point x="478" y="562"/>
			<point x="394" y="622"/>
			<point x="270" y="622" type="curve" smooth="yes"/>
			<point x="150" y="622"/>
			<point x="64" y="562"/>
			<point x="64" y="452" type="curve" smooth="yes"/>
			<point x="64" y="386"/>
			<point x="96" y="346"/>
			<point x="146" y="308" type="curve"/>
			<point x="146" y="304" type="line"/>
			<point x="86" y="272"/>
			<point x="44" y="230"/>
			<point x="44" y="154" type="curve" smooth="yes"/>
			<point x="44" y="50"/>
			<point x="140" y="-12"/>
		</contour>
		<contour>
			<point x="306" y="366" type="curve"/>
			<point x="244" y="391"/>
			<point x="208" y="410"/>
			<point x="208" y="444" type="curve" smooth="yes"/>
			<point x="208" y="466"/>
			<point x="227" y="482"/>
			<point x="266" y="482" type="curve" smooth="yes"/>
			<point x="309" y="482"/>
			<point x="334" y="462"/>
			<point x="334" y="430" type="curve" smooth="yes"/>
			<point x="334" y="410"/>
			<point x="324" y="391"/>
		</contour>
		<contour>
			<point x="278" y="128" type="curve" smooth="yes"/>
			<point x="230" y="128"/>
			<point x="188" y="147"/>
			<point x="188" y="188" type="curve" smooth="yes"/>
			<point x="188" y="216"/>
			<point x="203" y="229"/>
			<point x="224" y="252" type="curve"/>
			<point x="304" y="215"/>
			<point x="350" y="204"/>
			<point x="350" y="170" type="curve" smooth="yes"/>
			<point x="350" y="146"/>
			<point x="329" y="128"/>
		</contour>
	</outline>
</glyph>
<glyph name="nine.S" format="2">
	<unicode hex="0039"/>
	<advance width="540"/>
	<outline>
		<contour>
			<point x="224" y="-52" type="curve" smooth="yes"/>
			<point x="369" y="-52"/>
			<point x="498" y="44"/>
			<point x="498" y="272" type="curve" smooth="yes"/>
			<point x="498" y="500"/>
			<point x="374" y="580"/>
			<point x="252" y="580" type="curve" smooth="yes"/>
			<point x="137" y="580"/>
			<point x="42" y="504"/>
			<point x="42" y="364" type="curve" smooth="yes"/>
			<point x="42" y="235"/>
			<point x="126" y="176"/>
			<point x="224" y="176" type="curve" smooth="yes"/>
			<point x="284" y="176"/>
			<point x="340" y="197"/>
			<point x="370" y="244" type="curve"/>
			<point x="362" y="368" type="line"/>
			<point x="331" y="319"/>
			<point x="296" y="300"/>
			<point x="252" y="300" type="curve" smooth="yes"/>
			<point x="214" y="300"/>
			<point x="190" y="322"/>
			<point x="190" y="368" type="curve" smooth="yes"/>
			<point x="190" y="418"/>
			<point x="218" y="452"/>
			<point x="256" y="452" type="curve" smooth="yes"/>
			<point x="298" y="452"/>
			<point x="340" y="424"/>
			<point x="340" y="272" type="curve" smooth="yes"/>
			<point x="340" y="135"/>
			<point x="282" y="86"/>
			<point x="214" y="86" type="curve" smooth="yes"/>
			<point x="174" y="86"/>
			<point x="148" y="90"/>
			<point x="102" y="108" type="curve"/>
			<point x="64" y="-16" type="line"/>
			<point x="122" y="-46"/>
			<point x="162" y="-52"/>
		</contour>
	</outline>
</glyph>
<glyph name="question.S" format="2">
	<unicode hex="003F"/>
	<advance width="478"/>
	<outline>
		<contour>
			<point x="150" y="258" type="curve"/>
			<point x="152" y="254" type="line"/>
			<point x="302" y="254" type="line"/>
			<point x="358" y="312"/>
			<point x="418" y="378"/>
			<point x="418" y="468" type="curve" smooth="yes"/>
			<point x="418" y="568"/>
			<point x="330" y="610"/>
			<point x="224" y="610" type="curve" smooth="yes"/>
			<point x="150" y="610"/>
			<point x="92" y="588"/>
			<point x="42" y="544" type="curve"/>
			<point x="118" y="430" type="line"/>
			<point x="152" y="454"/>
			<point x="173" y="464"/>
			<point x="212" y="464" type="curve" smooth="yes"/>
			<point x="250" y="464"/>
			<point x="274" y="446"/>
			<point x="274" y="418" type="curve" smooth="yes"/>
			<point x="274" y="380"/>
			<point x="230" y="330"/>
		</contour>
		<contour>
			<point x="226" y="-12" type="curve" smooth="yes"/>
			<point x="284" y="-12"/>
			<point x="326" y="34"/>
			<point x="326" y="92" type="curve" smooth="yes"/>
			<point x="326" y="150"/>
			<point x="284" y="196"/>
			<point x="226" y="196" type="curve" smooth="yes"/>
			<point x="168" y="196"/>
			<point x="126" y="150"/>
			<point x="126" y="92" type="curve" smooth="yes"/>
			<point x="126" y="34"/>
			<point x="168" y="-12"/>
		</contour>
	</outline>
</glyph>
<glyph name="I" format="2">
	<unicode hex="0049"/>
	<advance width="316"/>
	<outline>
		<contour>
			<point x="72" y="0" type="line"/>
			<point x="244" y="0" type="line"/>
			<point x="244" y="650" type="line"/>
			<point x="72" y="650" type="line"/>
		</contour>
	</outline>
	<anchor name="aboveUC" x="158" y="670"/>
	<anchor name="belowLC" x="158" y="-20"/>
	<anchor name="ogonekUC" x="140" y="0"/>
	<anchor name="baseLC" x="160" y="0"/>
</glyph>
<glyph name="cent.S" format="2">
	<unicode hex="00A2"/>
	<advance width="540"/>
	<outline>
		<contour>
			<point x="334" y="24" type="curve" smooth="yes"/>
			<point x="400" y="24"/>
			<point x="460" y="44"/>
			<point x="516" y="86" type="curve"/>
			<point x="450" y="208" type="line"/>
			<point x="410" y="184"/>
			<point x="376" y="174"/>
			<point x="340" y="174" type="curve" smooth="yes"/>
			<point x="262" y="174"/>
			<point x="208" y="216"/>
			<point x="208" y="284" type="curve" smooth="yes"/>
			<point x="208" y="352"/>
			<point x="260" y="394"/>
			<point x="336" y="394" type="curve" smooth="yes"/>
			<point x="370" y="394"/>
			<point x="400" y="386"/>
			<point x="438" y="364" type="curve"/>
			<point x="504" y="486" type="line"/>
			<point x="454" y="524"/>
			<point x="394" y="544"/>
			<point x="330" y="544" type="curve" smooth="yes"/>
			<point x="174" y="544"/>
			<point x="64" y="445"/>
			<point x="64" y="278" type="curve" smooth="yes"/>
			<point x="64" y="119"/>
			<point x="176" y="24"/>
		</contour>
		<contour>
			<point x="280" y="-64" type="line"/>
			<point x="372" y="-64" type="line"/>
			<point x="372" y="636" type="line"/>
			<point x="280" y="636" type="line"/>
		</contour>
	</outline>
</glyph>
<glyph name="dotlessi" format="2">
	<unicode hex="0131"/>
	<advance width="288"/>
	<outline>
		<contour>
			<point x="58" y="0" type="line"/>
			<point x="230" y="0" type="line"/>
			<point x="230" y="500" type="line"/>
			<point x="58" y="500" type="line"/>
		</contour>
	</outline>
	<anchor name="aboveLC" x="144" y="520"/>
	<anchor name="belowLC" x="144" y="-20"/>
	<anchor name="ogonekLC" x="190" y="0"/>
	<anchor name="baseLC" x="144" y="0"/>
</glyph>
<glyph name="dezh" format="2">
	<unicode hex="02A4"/>
	<advance width="956"/>
	<outline>
		<contour>
			<point x="411" y="366" type="line"/>
			<point x="646" y="366" type="line"/>
			<point x="646" y="500" type="line"/>
			<point x="411" y="500" type="line"/>
		</contour>
		<component base="d"/>
		<component base="ezh" xOffset="482"/>
	</outline>
	<anchor name="aboveUC" x="478" y="730"/>
	<anchor name="belowLC" x="478" y="-20"/>
</glyph>
<glyph name="primemod" format="2">
	<unicode hex="02B9"/>
	<advance width="320"/>
	<outline>
		<contour>
			<point x="182" y="384" type="line"/>
			<point x="248" y="560" type="line"/>
			<point x="282" y="696" type="line"/>
			<point x="112" y="710" type="line"/>
			<point x="70" y="392" type="line"/>
		</contour>
	</outline>
</glyph>
<glyph name="heHiriq" format="2">
	<unicode hex="05B4"/>
	<outline>
		<contour>
			<point x="0" y="-161" type="curve" smooth="yes"/>
			<point x="23" y="-161"/>
			<point x="44" y="-145"/>
			<point x="44" y="-117" type="curve" smooth="yes"/>
			<point x="44" y="-91"/>
			<point x="23" y="-73"/>
			<point x="0" y="-73" type="curve" smooth="yes"/>
			<point x="-23" y="-73"/>
			<point x="-44" y="-91"/>
			<point x="-44" y="-117" type="curve" smooth="yes"/>
			<point x="-44" y="-144"/>
			<point x="-23" y="-161"/>
		</contour>
	</outline>
	<anchor name="_belowPrimaryHE" x="0" y="-30"/>
	<anchor name="_belowLeftHE" x="-35" y="-30"/>
	<anchor name="_belowRightHE" x="35" y="-30"/>
	<anchor name="belowPrimaryHE" x="-110" y="-30"/>
	<anchor name="_belowSecondaryHE" x="0" y="-30"/>
	<guideline y="-133" identifier="4QcKMXi29o"/>
</glyph>
<glyph name="hePatah" format="2">
	<unicode hex="05B7"/>
	<outline>
		<contour>
			<point x="-111" y="-132" type="line"/>
			<point x="111" y="-132" type="line"/>
			<point x="111" y="-80" type="line"/>
			<point x="-111" y="-80" type="line"/>
		</contour>
	</outline>
	<anchor name="_belowPrimaryHE" x="0" y="-30"/>
	<anchor name="_belowLeftHE" x="-110" y="-30"/>
	<anchor name="_belowRightHE" x="110" y="-30"/>
	<anchor name="belowPrimaryHE" x="-180" y="-30"/>
	<anchor name="_belowSecondaryHE" x="10" y="-30"/>
	<guideline x="-170" identifier="QGO5vhQEkK"/>
</glyph>
<glyph name="heQamats" format="2">
	<unicode hex="05B8"/>
	<outline>
		<contour>
			<point x="-34" y="-240" type="line"/>
			<point x="34" y="-240" type="line"/>
			<point x="34" y="-144" type="line"/>
			<point x="110" y="-144" type="line"/>
			<point x="110" y="-76" type="line"/>
			<point x="-110" y="-76" type="line"/>
			<point x="-110" y="-144" type="line"/>
			<point x="-34" y="-144" type="line"/>
		</contour>
	</outline>
	<anchor name="_belowPrimaryHE" x="0" y="-22"/>
	<anchor name="_belowLeftHE" x="-110" y="-22"/>
	<anchor name="_belowRightHE" x="110" y="-22"/>
	<anchor name="belowPrimaryHE" x="-180" y="-22"/>
	<anchor name="_belowSecondaryHE" x="0" y="-22"/>
	<guideline y="46" identifier="Ota23jXeoc"/>
	<guideline x="-87" identifier="sFmUGK18RC"/>
	<guideline x="-180" identifier="prZ02GHauW"/>
</glyph>
<glyph name="heMeteg" format="2">
	<unicode hex="05BD"/>
	<outline>
		<contour>
			<point x="-34" y="-300" type="line"/>
			<point x="34" y="-300" type="line"/>
			<point x="34" y="-76" type="line"/>
			<point x="-34" y="-76" type="line"/>
		</contour>
	</outline>
	<anchor name="_belowPrimaryHE" x="0" y="-22"/>
	<anchor name="_belowLeftHE" x="-25" y="-22"/>
	<anchor name="_belowRightHE" x="25" y="-22"/>
	<anchor name="_belowSecondaryHE" x="0" y="-22"/>
</glyph>
<glyph name="heMaqaf" format="2">
	<unicode hex="05BE"/>
	<advance width="340"/>
	<outline>
		<contour>
			<point x="38" y="420" type="line"/>
			<point x="302" y="420" type="line"/>
			<point x="302" y="568" type="line"/>
			<point x="38" y="568" type="line"/>
		</contour>
	</outline>
</glyph>
<glyph name="hePaseq" format="2">
	<unicode hex="05C0"/>
	<advance width="323"/>
	<outline>
		<contour>
			<point x="100" y="-106" type="line"/>
			<point x="210" y="-106" type="line"/>
			<point x="210" y="616" type="line"/>
			<point x="100" y="616" type="line"/>
		</contour>
	</outline>
</glyph>
<glyph name="heQamatsQatan" format="2">
	<unicode hex="05C7"/>
	<outline>
		<contour>
			<point x="-34" y="-300" type="line"/>
			<point x="34" y="-300" type="line"/>
			<point x="34" y="-144" type="line"/>
			<point x="110" y="-144" type="line"/>
			<point x="110" y="-76" type="line"/>
			<point x="-110" y="-76" type="line"/>
			<point x="-110" y="-144" type="line"/>
			<point x="-34" y="-144" type="line"/>
		</contour>
	</outline>
	<anchor name="_belowPrimaryHE" x="0" y="-22"/>
	<anchor name="_belowLeftHE" x="-110" y="-22"/>
	<anchor name="_belowRightHE" x="110" y="-22"/>
	<anchor name="belowPrimaryHE" x="-170" y="-22"/>
	<anchor name="_belowSecondaryHE" x="0" y="-22"/>
	<guideline y="46" identifier="0QQY0Nsl6b"/>
</glyph>
<glyph name="heAlef" format="2">
	<unicode hex="05D0"/>
	<advance width="642"/>
	<outline>
		<contour>
			<point x="468" y="190" type="line"/>
			<point x="578" y="274"/>
			<point x="614" y="336"/>
			<point x="614" y="424" type="curve" smooth="yes"/>
			<point x="614" y="525"/>
			<point x="560" y="568"/>
			<point x="436" y="568" type="curve" smooth="yes"/>
			<point x="354" y="568" type="line"/>
			<point x="354" y="396" type="line"/>
			<point x="372" y="396" type="line" smooth="yes"/>
			<point x="442" y="396"/>
			<point x="466" y="380"/>
			<point x="466" y="348" type="curve" smooth="yes"/>
			<point x="466" y="326"/>
			<point x="450" y="304"/>
			<point x="402" y="274" type="curve"/>
		</contour>
		<contour>
			<point x="54" y="0" type="curve"/>
			<point x="238" y="0" type="line"/>
			<point x="232" y="38"/>
			<point x="228" y="76"/>
			<point x="228" y="112" type="curve" smooth="yes"/>
			<point x="228" y="180"/>
			<point x="228" y="256"/>
			<point x="260" y="340" type="curve"/>
			<point x="160" y="368" type="line"/>
			<point x="95" y="295"/>
			<point x="52" y="168"/>
			<point x="52" y="44" type="curve" smooth="yes"/>
			<point x="52" y="28"/>
			<point x="52" y="16"/>
		</contour>
		<contour>
			<point x="476" y="-12" type="curve"/>
			<point x="630" y="84" type="line"/>
			<point x="466" y="204"/>
			<point x="284" y="396"/>
			<point x="202" y="570" type="curve"/>
			<point x="32" y="508" type="line"/>
			<point x="130" y="336"/>
			<point x="322" y="108"/>
		</contour>
	</outline>
	<anchor name="aboveHE" x="275" y="530"/>
	<anchor name="belowPrimaryHE" x="310" y="-30"/>
	<anchor name="aboveLeftHE" x="5" y="530"/>
	<anchor name="centerHE" x="270" y="90"/>
</glyph>
<glyph name="heBet" format="2">
	<unicode hex="05D1"/>
	<advance width="610"/>
	<outline>
		<contour>
			<point x="576" y="0" type="line"/>
			<point x="576" y="172" type="line"/>
			<point x="54" y="172" type="line"/>
			<point x="54" y="0" type="line"/>
		</contour>
		<contour>
			<point x="514" y="0" type="line"/>
			<point x="526" y="102"/>
			<point x="534" y="190"/>
			<point x="534" y="302" type="curve" smooth="yes"/>
			<point x="534" y="486"/>
			<point x="438" y="568"/>
			<point x="278" y="568" type="curve" smooth="yes"/>
			<point x="74" y="568" type="line"/>
			<point x="74" y="396" type="line"/>
			<point x="198" y="396" type="line" smooth="yes"/>
			<point x="332" y="396"/>
			<point x="386" y="344"/>
			<point x="386" y="200" type="curve" smooth="yes"/>
			<point x="386" y="190"/>
			<point x="385" y="182"/>
			<point x="384" y="172" type="curve"/>
		</contour>
	</outline>
</glyph>
<glyph name="heGimel" format="2">
	<unicode hex="05D2"/>
	<advance width="430"/>
	<outline>
		<contour>
			<point x="216" y="0" type="line"/>
			<point x="388" y="0" type="line"/>
			<point x="354" y="388" type="line" smooth="yes"/>
			<point x="344" y="506"/>
			<point x="292" y="568"/>
			<point x="162" y="568" type="curve" smooth="yes"/>
			<point x="64" y="568" type="line"/>
			<point x="64" y="420" type="line"/>
			<point x="108" y="420" type="line" smooth="yes"/>
			<point x="156" y="420"/>
			<point x="187" y="392"/>
			<point x="192" y="330" type="curve" smooth="yes"/>
		</contour>
		<contour>
			<point x="44" y="-8" type="line"/>
			<point x="154" y="-3"/>
			<point x="241" y="80"/>
			<point x="246" y="159" type="curve"/>
			<point x="226" y="262" type="line"/>
			<point x="213" y="190"/>
			<point x="139" y="157"/>
			<point x="44" y="152" type="curve"/>
		</contour>
	</outline>
	<anchor name="aboveHE" x="220" y="590"/>
	<anchor name="belowPrimaryHE" x="210" y="-22"/>
	<anchor name="centerHE" x="135" y="290"/>
	<anchor name="aboveLeftHE" x="61" y="590"/>
	<anchor name="belowPrimaryHECXT" x="230" y="-22"/>
</glyph>
<glyph name="heDalet" format="2">
	<unicode hex="05D3"/>
	<advance width="538"/>
	<outline>
		<contour>
			<point x="14" y="420" type="line"/>
			<point x="504" y="420" type="line"/>
			<point x="504" y="568" type="line"/>
			<point x="14" y="568" type="line"/>
		</contour>
		<contour>
			<point x="240" y="0" type="line"/>
			<point x="412" y="0" type="line"/>
			<point x="412" y="420" type="line"/>
			<point x="284" y="420" type="line"/>
			<point x="258" y="378"/>
			<point x="240" y="307"/>
			<point x="240" y="250" type="curve" smooth="yes"/>
		</contour>
	</outline>
	<anchor name="aboveHE" x="230" y="590"/>
	<anchor name="belowSecondaryHE" x="340" y="-22"/>
	<anchor name="centerHE" x="140" y="220"/>
	<anchor name="aboveLeftHE" x="-10" y="590"/>
</glyph>
<glyph name="heHe" format="2">
	<unicode hex="05D4"/>
	<advance width="682"/>
	<outline>
		<contour>
			<point x="438" y="0" type="line"/>
			<point x="610" y="0" type="line"/>
			<point x="610" y="352" type="line" smooth="yes"/>
			<point x="610" y="508"/>
			<point x="526" y="568"/>
			<point x="404" y="568" type="curve" smooth="yes"/>
			<point x="64" y="568" type="line"/>
			<point x="64" y="420" type="line"/>
			<point x="308" y="420" type="line" smooth="yes"/>
			<point x="388" y="420"/>
			<point x="438" y="392"/>
			<point x="438" y="294" type="curve" smooth="yes"/>
		</contour>
		<contour>
			<point x="94" y="0" type="line"/>
			<point x="266" y="0" type="line"/>
			<point x="266" y="340" type="line"/>
			<point x="138" y="340" type="line"/>
			<point x="112" y="298"/>
			<point x="94" y="227"/>
			<point x="94" y="170" type="curve" smooth="yes"/>
		</contour>
	</outline>
	<anchor name="aboveHE" x="330" y="590"/>
	<anchor name="belowPrimaryHE" x="340" y="-22"/>
	<anchor name="centerHE" x="340" y="220"/>
	<anchor name="aboveLeftHE" x="40" y="590"/>
</glyph>
<glyph name="heZayin" format="2">
	<unicode hex="05D6"/>
	<advance width="418"/>
	<outline>
		<contour>
			<point x="24" y="420" type="line"/>
			<point x="374" y="420" type="line"/>
			<point x="374" y="568" type="line"/>
			<point x="24" y="568" type="line"/>
		</contour>
		<contour>
			<point x="140" y="0" type="curve"/>
			<point x="312" y="0" type="line"/>
			<point x="290" y="140"/>
			<point x="278" y="208"/>
			<point x="278" y="284" type="curve" smooth="yes"/>
			<point x="278" y="338"/>
			<point x="280" y="388"/>
			<point x="294" y="420" type="curve"/>
			<point x="166" y="420" type="line"/>
			<point x="117" y="363"/>
			<point x="108" y="320"/>
			<point x="108" y="270" type="curve" smooth="yes"/>
			<point x="108" y="219"/>
			<point x="120" y="124"/>
		</contour>
	</outline>
	<anchor name="aboveHE" x="180" y="590"/>
	<anchor name="belowPrimaryHE" x="220" y="-22"/>
	<anchor name="centerHE" x="30" y="210"/>
	<anchor name="aboveLeftHE" x="0" y="590"/>
</glyph>
<glyph name="heHet" format="2">
	<unicode hex="05D7"/>
	<advance width="712"/>
	<outline>
		<contour>
			<point x="492" y="0" type="line"/>
			<point x="640" y="0" type="line"/>
			<point x="640" y="352" type="line" smooth="yes"/>
			<point x="640" y="508"/>
			<point x="556" y="568"/>
			<point x="434" y="568" type="curve" smooth="yes"/>
			<point x="54" y="568" type="line"/>
			<point x="54" y="396" type="line"/>
			<point x="362" y="396" type="line" smooth="yes"/>
			<point x="442" y="396"/>
			<point x="492" y="368"/>
			<point x="492" y="270" type="curve" smooth="yes"/>
		</contour>
		<contour>
			<point x="104" y="0" type="line"/>
			<point x="252" y="0" type="line"/>
			<point x="252" y="396" type="line"/>
			<point x="128" y="396" type="line"/>
			<point x="114" y="352"/>
			<point x="104" y="306"/>
			<point x="104" y="246" type="curve" smooth="yes"/>
		</contour>
	</outline>
</glyph>
<glyph name="heTet" format="2">
	<unicode hex="05D8"/>
	<advance width="646"/>
	<outline>
		<contour>
			<point x="338" y="-12" type="curve" smooth="yes"/>
			<point x="502" y="-12"/>
			<point x="618" y="136"/>
			<point x="618" y="364" type="curve" smooth="yes"/>
			<point x="618" y="506"/>
			<point x="569" y="568"/>
			<point x="420" y="568" type="curve" smooth="yes"/>
			<point x="338" y="568" type="line"/>
			<point x="338" y="396" type="line"/>
			<point x="376" y="396" type="line" smooth="yes"/>
			<point x="446" y="396"/>
			<point x="470" y="372"/>
			<point x="470" y="324" type="curve" smooth="yes"/>
			<point x="470" y="226"/>
			<point x="420" y="158"/>
			<point x="356" y="158" type="curve" smooth="yes"/>
			<point x="286" y="158"/>
			<point x="244" y="197"/>
			<point x="244" y="328" type="curve" smooth="yes"/>
			<point x="244" y="353"/>
			<point x="246" y="377"/>
			<point x="246" y="402" type="curve" smooth="yes"/>
			<point x="246" y="530"/>
			<point x="180" y="568"/>
			<point x="70" y="568" type="curve" smooth="yes"/>
			<point x="24" y="568" type="line"/>
			<point x="24" y="396" type="line"/>
			<point x="38" y="396" type="line" smooth="yes"/>
			<point x="82" y="396"/>
			<point x="98" y="388"/>
			<point x="98" y="320" type="curve" smooth="yes"/>
			<point x="98" y="301"/>
			<point x="96" y="283"/>
			<point x="96" y="264" type="curve" smooth="yes"/>
			<point x="96" y="70"/>
			<point x="196" y="-12"/>
		</contour>
	</outline>
	<anchor name="aboveHE" x="310" y="530"/>
	<anchor name="belowPrimaryHE" x="320" y="-30"/>
	<anchor name="centerHE" x="310" y="260"/>
	<anchor name="aboveLeftHE" x="15" y="530"/>
</glyph>
<glyph name="heKafFin" format="2">
	<unicode hex="05DA"/>
	<advance width="522"/>
	<outline>
		<contour>
			<point x="278" y="-156" type="line"/>
			<point x="450" y="-156" type="line"/>
			<point x="450" y="352" type="line" smooth="yes"/>
			<point x="450" y="508"/>
			<point x="366" y="568"/>
			<point x="244" y="568" type="curve" smooth="yes"/>
			<point x="24" y="568" type="line"/>
			<point x="24" y="420" type="line"/>
			<point x="148" y="420" type="line" smooth="yes"/>
			<point x="228" y="420"/>
			<point x="278" y="392"/>
			<point x="278" y="294" type="curve" smooth="yes"/>
		</contour>
	</outline>
	<anchor name="aboveHE" x="220" y="590"/>
	<anchor name="centerSecondaryHE" x="160" y="300"/>
	<anchor name="aboveLeftHE" x="0" y="590"/>
	<anchor name="belowPrimaryHE" x="160" y="-22"/>
	<anchor name="centerHE" x="160" y="220"/>
</glyph>
<glyph name="heKaf" format="2">
	<unicode hex="05DB"/>
	<advance width="536"/>
	<outline>
		<contour>
			<point x="44" y="0" type="line"/>
			<point x="418" y="0" type="line"/>
			<point x="476" y="106"/>
			<point x="498" y="200"/>
			<point x="498" y="302" type="curve" smooth="yes"/>
			<point x="498" y="486"/>
			<point x="412" y="568"/>
			<point x="242" y="568" type="curve" smooth="yes"/>
			<point x="64" y="568" type="line"/>
			<point x="64" y="420" type="line"/>
			<point x="172" y="420" type="line" smooth="yes"/>
			<point x="278" y="420"/>
			<point x="320" y="372"/>
			<point x="320" y="278" type="curve" smooth="yes"/>
			<point x="320" y="230"/>
			<point x="310" y="186"/>
			<point x="292" y="148" type="curve"/>
			<point x="44" y="148" type="line"/>
		</contour>
	</outline>
	<anchor name="aboveHE" x="260" y="590"/>
	<anchor name="belowPrimaryHE" x="260" y="-22"/>
	<anchor name="centerHE" x="210" y="280"/>
	<anchor name="aboveLeftHE" x="40" y="590"/>
</glyph>
<glyph name="heLamed" format="2">
	<unicode hex="05DC"/>
	<advance width="528"/>
	<outline>
		<contour>
			<point x="118" y="-12" type="line"/>
			<point x="401" y="98"/>
			<point x="490" y="264"/>
			<point x="490" y="428" type="curve" smooth="yes"/>
			<point x="490" y="526"/>
			<point x="438" y="568"/>
			<point x="278" y="568" type="curve" smooth="yes"/>
			<point x="172" y="568" type="line"/>
			<point x="172" y="742" type="line"/>
			<point x="24" y="742" type="line"/>
			<point x="24" y="396" type="line"/>
			<point x="242" y="396" type="line" smooth="yes"/>
			<point x="300" y="396"/>
			<point x="322" y="386"/>
			<point x="322" y="346" type="curve" smooth="yes"/>
			<point x="322" y="281"/>
			<point x="240" y="204"/>
			<point x="62" y="164" type="curve"/>
		</contour>
	</outline>
</glyph>
<glyph name="heMemFin" format="2">
	<unicode hex="05DD"/>
	<advance width="722"/>
	<outline>
		<contour>
			<point x="168" y="0" type="line"/>
			<point x="650" y="0" type="line"/>
			<point x="650" y="352" type="line" smooth="yes"/>
			<point x="650" y="508"/>
			<point x="566" y="568"/>
			<point x="444" y="568" type="curve" smooth="yes"/>
			<point x="44" y="568" type="line"/>
			<point x="44" y="396" type="line"/>
			<point x="372" y="396" type="line" smooth="yes"/>
			<point x="452" y="396"/>
			<point x="502" y="368"/>
			<point x="502" y="270" type="curve" smooth="yes"/>
			<point x="502" y="172" type="line"/>
			<point x="168" y="172" type="line"/>
		</contour>
		<contour>
			<point x="104" y="0" type="line"/>
			<point x="252" y="0" type="line"/>
			<point x="252" y="396" type="line"/>
			<point x="128" y="396" type="line"/>
			<point x="114" y="352"/>
			<point x="104" y="306"/>
			<point x="104" y="246" type="curve" smooth="yes"/>
		</contour>
	</outline>
</glyph>
<glyph name="heMem" format="2">
	<unicode hex="05DE"/>
	<advance width="728"/>
	<outline>
		<contour>
			<point x="344" y="-12" type="line"/>
			<point x="426" y="-1"/>
			<point x="540" y="0"/>
			<point x="656" y="0" type="curve"/>
			<point x="660" y="68"/>
			<point x="664" y="144"/>
			<point x="664" y="200" type="curve" smooth="yes"/>
			<point x="664" y="483"/>
			<point x="574" y="580"/>
			<point x="422" y="580" type="curve" smooth="yes"/>
			<point x="209" y="580"/>
			<point x="76" y="297"/>
			<point x="76" y="0" type="curve"/>
			<point x="224" y="0" type="line"/>
			<point x="224" y="213"/>
			<point x="296" y="406"/>
			<point x="400" y="406" type="curve" smooth="yes"/>
			<point x="469" y="406"/>
			<point x="512" y="356"/>
			<point x="512" y="200" type="curve" smooth="yes"/>
			<point x="512" y="191"/>
			<point x="511" y="182"/>
			<point x="510" y="172" type="curve"/>
			<point x="458" y="172"/>
			<point x="396" y="167"/>
			<point x="350" y="162" type="curve"/>
		</contour>
		<contour>
			<point x="136" y="314" type="curve"/>
			<point x="256" y="370" type="line"/>
			<point x="244" y="444"/>
			<point x="210" y="532"/>
			<point x="180" y="580" type="curve"/>
			<point x="34" y="530" type="line"/>
			<point x="76" y="474"/>
			<point x="122" y="378"/>
		</contour>
	</outline>
</glyph>
<glyph name="heNunFin" format="2">
	<unicode hex="05DF"/>
	<advance width="386"/>
	<outline>
		<contour>
			<point x="142" y="-156" type="line"/>
			<point x="314" y="-156" type="line"/>
			<point x="314" y="372" type="line" smooth="yes"/>
			<point x="314" y="514"/>
			<point x="234" y="568"/>
			<point x="118" y="568" type="curve" smooth="yes"/>
			<point x="24" y="568" type="line"/>
			<point x="24" y="420" type="line"/>
			<point x="32" y="420" type="line" smooth="yes"/>
			<point x="100" y="420"/>
			<point x="142" y="396"/>
			<point x="142" y="314" type="curve" smooth="yes"/>
		</contour>
	</outline>
	<anchor name="aboveHE" x="160" y="590"/>
	<anchor name="belowRightHE" x="100" y="-22"/>
	<anchor name="aboveLeftHE" x="0" y="590"/>
</glyph>
<glyph name="heNun" format="2">
	<unicode hex="05E0"/>
	<advance width="472"/>
	<outline>
		<contour>
			<point x="54" y="0" type="line"/>
			<point x="390" y="0" type="line"/>
			<point x="390" y="372" type="line" smooth="yes"/>
			<point x="390" y="514"/>
			<point x="314" y="568"/>
			<point x="204" y="568" type="curve" smooth="yes"/>
			<point x="92" y="568" type="line"/>
			<point x="92" y="396" type="line"/>
			<point x="132" y="396" type="line" smooth="yes"/>
			<point x="200" y="396"/>
			<point x="242" y="372"/>
			<point x="242" y="290" type="curve" smooth="yes"/>
			<point x="242" y="172" type="line"/>
			<point x="54" y="172" type="line"/>
		</contour>
	</outline>
</glyph>
<glyph name="heSamekh" format="2">
	<unicode hex="05E1"/>
	<advance width="626"/>
	<outline>
		<contour>
			<point x="332" y="-12" type="curve" smooth="yes"/>
			<point x="488" y="-12"/>
			<point x="598" y="166"/>
			<point x="598" y="364" type="curve" smooth="yes"/>
			<point x="598" y="506"/>
			<point x="554" y="568"/>
			<point x="420" y="568" type="curve" smooth="yes"/>
			<point x="4" y="568" type="line"/>
			<point x="4" y="396" type="line"/>
			<point x="376" y="396" type="line" smooth="yes"/>
			<point x="431" y="396"/>
			<point x="450" y="372"/>
			<point x="450" y="324" type="curve" smooth="yes"/>
			<point x="450" y="246"/>
			<point x="414" y="158"/>
			<point x="350" y="158" type="curve" smooth="yes"/>
			<point x="288" y="158"/>
			<point x="226" y="204"/>
			<point x="222" y="474" type="curve"/>
			<point x="74" y="424" type="line"/>
			<point x="76" y="118"/>
			<point x="190" y="-12"/>
		</contour>
	</outline>
	<anchor name="aboveHE" x="300" y="530"/>
	<anchor name="belowPrimaryHE" x="310" y="-30"/>
	<anchor name="centerHE" x="300" y="260"/>
	<anchor name="aboveLeftHE" x="5" y="530"/>
</glyph>
<glyph name="heAyin" format="2">
	<unicode hex="05E2"/>
	<advance width="672"/>
	<outline>
		<contour>
			<point x="219" y="16" type="curve"/>
			<point x="362" y="42" type="line"/>
			<point x="338" y="230"/>
			<point x="272" y="444"/>
			<point x="212" y="574" type="curve"/>
			<point x="62" y="538" type="line"/>
			<point x="123" y="404"/>
			<point x="196" y="198"/>
		</contour>
		<contour>
			<point x="54" y="0" type="line"/>
			<point x="152" y="0" type="line" smooth="yes"/>
			<point x="480" y="0"/>
			<point x="624" y="193"/>
			<point x="624" y="364" type="curve" smooth="yes"/>
			<point x="624" y="506"/>
			<point x="575" y="568"/>
			<point x="426" y="568" type="curve" smooth="yes"/>
			<point x="354" y="568" type="line"/>
			<point x="354" y="396" type="line"/>
			<point x="382" y="396" type="line" smooth="yes"/>
			<point x="452" y="396"/>
			<point x="476" y="372"/>
			<point x="476" y="324" type="curve" smooth="yes"/>
			<point x="476" y="251"/>
			<point x="394" y="172"/>
			<point x="208" y="172" type="curve" smooth="yes"/>
			<point x="54" y="172" type="line"/>
		</contour>
	</outline>
</glyph>
<glyph name="hePeFin" format="2">
	<unicode hex="05E3"/>
	<advance width="602"/>
	<outline>
		<contour>
			<point x="358" y="-156" type="curve"/>
			<point x="530" y="-156" type="line"/>
			<point x="536" y="-4"/>
			<point x="538" y="160"/>
			<point x="538" y="302" type="curve" smooth="yes"/>
			<point x="538" y="512"/>
			<point x="434" y="580"/>
			<point x="284" y="580" type="curve" smooth="yes"/>
			<point x="158" y="580"/>
			<point x="42" y="496"/>
			<point x="42" y="342" type="curve" smooth="yes"/>
			<point x="42" y="232"/>
			<point x="96" y="158"/>
			<point x="220" y="158" type="curve" smooth="yes"/>
			<point x="258" y="158" type="line"/>
			<point x="258" y="306" type="line"/>
			<point x="254" y="306" type="line" smooth="yes"/>
			<point x="228" y="306"/>
			<point x="214" y="324"/>
			<point x="214" y="362" type="curve" smooth="yes"/>
			<point x="214" y="406"/>
			<point x="246" y="432"/>
			<point x="284" y="432" type="curve" smooth="yes"/>
			<point x="338" y="432"/>
			<point x="366" y="408"/>
			<point x="366" y="272" type="curve" smooth="yes"/>
			<point x="366" y="140"/>
			<point x="364" y="-13"/>
		</contour>
	</outline>
	<anchor name="aboveHE" x="285" y="590"/>
	<anchor name="belowRightHE" x="245" y="-22"/>
	<anchor name="centerHE" x="320" y="240"/>
	<anchor name="aboveLeftHE" x="40" y="590"/>
</glyph>
<glyph name="hePe" format="2">
	<unicode hex="05E4"/>
	<advance width="648"/>
	<outline>
		<contour>
			<point x="44" y="0" type="line"/>
			<point x="564" y="0" type="line"/>
			<point x="576" y="102"/>
			<point x="584" y="190"/>
			<point x="584" y="302" type="curve" smooth="yes"/>
			<point x="584" y="486"/>
			<point x="506" y="568"/>
			<point x="348" y="568" type="curve" smooth="yes"/>
			<point x="74" y="568" type="line"/>
			<point x="74" y="396" type="line"/>
			<point x="268" y="396" type="line" smooth="yes"/>
			<point x="398" y="396"/>
			<point x="436" y="344"/>
			<point x="436" y="200" type="curve" smooth="yes"/>
			<point x="436" y="190"/>
			<point x="435" y="174"/>
			<point x="434" y="164" type="curve"/>
			<point x="44" y="164" type="line"/>
		</contour>
		<contour>
			<point x="260" y="194" type="curve" smooth="yes"/>
			<point x="312" y="194" type="line"/>
			<point x="312" y="346" type="line"/>
			<point x="284" y="346" type="line" smooth="yes"/>
			<point x="244" y="346"/>
			<point x="230" y="354"/>
			<point x="230" y="372" type="curve" smooth="yes"/>
			<point x="230" y="386"/>
			<point x="238" y="396"/>
			<point x="248" y="396" type="curve"/>
			<point x="248" y="468" type="line"/>
			<point x="162" y="468"/>
			<point x="82" y="405"/>
			<point x="82" y="322" type="curve" smooth="yes"/>
			<point x="82" y="246"/>
			<point x="136" y="194"/>
		</contour>
	</outline>
	<anchor name="aboveHE" x="285" y="530"/>
	<anchor name="belowPrimaryHE" x="265" y="-30"/>
	<anchor name="centerHE" x="295" y="230"/>
	<anchor name="aboveLeftHE" x="15" y="530"/>
</glyph>
<glyph name="heTsadiFin" format="2">
	<unicode hex="05E5"/>
	<advance width="582"/>
	<outline>
		<contour>
			<point x="238" y="84" type="line"/>
			<point x="442" y="179"/>
			<point x="534" y="307"/>
			<point x="534" y="414" type="curve" smooth="yes"/>
			<point x="534" y="522"/>
			<point x="480" y="568"/>
			<point x="356" y="568" type="curve" smooth="yes"/>
			<point x="284" y="568" type="line"/>
			<point x="284" y="396" type="line"/>
			<point x="312" y="396" type="line" smooth="yes"/>
			<point x="367" y="396"/>
			<point x="386" y="379"/>
			<point x="386" y="344" type="curve" smooth="yes"/>
			<point x="386" y="292"/>
			<point x="348" y="249"/>
			<point x="110" y="150" type="curve"/>
		</contour>
		<contour>
			<point x="96" y="-200" type="line"/>
			<point x="244" y="-200" type="line"/>
			<point x="244" y="392" type="line" smooth="yes"/>
			<point x="244" y="520"/>
			<point x="168" y="568"/>
			<point x="58" y="568" type="curve" smooth="yes"/>
			<point x="4" y="568" type="line"/>
			<point x="4" y="396" type="line"/>
			<point x="26" y="396" type="line" smooth="yes"/>
			<point x="69" y="396"/>
			<point x="96" y="377"/>
			<point x="96" y="310" type="curve" smooth="yes"/>
		</contour>
	</outline>
</glyph>
<glyph name="heTsadi" format="2">
	<unicode hex="05E6"/>
	<advance width="606"/>
	<outline>
		<contour>
			<point x="44" y="0" type="line"/>
			<point x="550" y="0" type="line"/>
			<point x="580" y="164" type="line"/>
			<point x="44" y="164" type="line"/>
		</contour>
		<contour>
			<point x="450" y="88" type="curve"/>
			<point x="580" y="164" type="line"/>
			<point x="376" y="238"/>
			<point x="238" y="383"/>
			<point x="156" y="570" type="curve"/>
			<point x="26" y="478" type="line"/>
			<point x="107" y="291"/>
			<point x="251" y="158"/>
		</contour>
		<contour>
			<point x="458" y="200" type="line"/>
			<point x="556" y="284"/>
			<point x="578" y="345"/>
			<point x="578" y="414" type="curve" smooth="yes"/>
			<point x="578" y="522"/>
			<point x="524" y="568"/>
			<point x="400" y="568" type="curve" smooth="yes"/>
			<point x="308" y="568" type="line"/>
			<point x="308" y="396" type="line"/>
			<point x="336" y="396" type="line" smooth="yes"/>
			<point x="406" y="396"/>
			<point x="430" y="379"/>
			<point x="430" y="344" type="curve" smooth="yes"/>
			<point x="430" y="323"/>
			<point x="414" y="306"/>
			<point x="330" y="266" type="curve"/>
		</contour>
	</outline>
	<anchor name="aboveHE" x="245" y="530"/>
	<anchor name="belowPrimaryHE" x="255" y="-30"/>
	<anchor name="centerHE" x="85" y="235"/>
	<anchor name="aboveLeftHE" x="-5" y="530"/>
</glyph>
<glyph name="heResh" format="2">
	<unicode hex="05E8"/>
	<advance width="512"/>
	<outline>
		<contour>
			<point x="268" y="0" type="line"/>
			<point x="440" y="0" type="line"/>
			<point x="440" y="352" type="line" smooth="yes"/>
			<point x="440" y="508"/>
			<point x="356" y="568"/>
			<point x="234" y="568" type="curve" smooth="yes"/>
			<point x="14" y="568" type="line"/>
			<point x="14" y="420" type="line"/>
			<point x="138" y="420" type="line" smooth="yes"/>
			<point x="218" y="420"/>
			<point x="268" y="392"/>
			<point x="268" y="294" type="curve" smooth="yes"/>
		</contour>
	</outline>
	<anchor name="aboveHE" x="230" y="590"/>
	<anchor name="belowSecondaryHE" x="370" y="-22"/>
	<anchor name="centerHE" x="150" y="220"/>
	<anchor name="aboveLeftHE" x="-10" y="590"/>
</glyph>
<glyph name="heShin" format="2">
	<unicode hex="05E9"/>
	<advance width="758"/>
	<outline>
		<contour>
			<point x="370" y="130" type="line"/>
			<point x="440" y="234"/>
			<point x="480" y="310"/>
			<point x="480" y="414" type="curve" smooth="yes"/>
			<point x="480" y="522"/>
			<point x="441" y="568"/>
			<point x="322" y="568" type="curve" smooth="yes"/>
			<point x="280" y="568" type="line"/>
			<point x="280" y="396" type="line"/>
			<point x="288" y="396" type="line" smooth="yes"/>
			<point x="339" y="396"/>
			<point x="356" y="376"/>
			<point x="356" y="334" type="curve" smooth="yes"/>
			<point x="356" y="292"/>
			<point x="330" y="240"/>
			<point x="266" y="176" type="curve"/>
		</contour>
		<contour>
			<point x="382" y="-12" type="curve" smooth="yes"/>
			<point x="578" y="-12"/>
			<point x="730" y="146"/>
			<point x="730" y="364" type="curve" smooth="yes"/>
			<point x="730" y="506"/>
			<point x="681" y="568"/>
			<point x="532" y="568" type="curve" smooth="yes"/>
			<point x="510" y="568" type="line"/>
			<point x="510" y="396" type="line"/>
			<point x="528" y="396" type="line" smooth="yes"/>
			<point x="571" y="396"/>
			<point x="586" y="372"/>
			<point x="586" y="324" type="curve" smooth="yes"/>
			<point x="586" y="226"/>
			<point x="493" y="152"/>
			<point x="400" y="152" type="curve" smooth="yes"/>
			<point x="294" y="152"/>
			<point x="240" y="194"/>
			<point x="240" y="348" type="curve" smooth="yes"/>
			<point x="240" y="366"/>
			<point x="242" y="384"/>
			<point x="242" y="402" type="curve" smooth="yes"/>
			<point x="242" y="530"/>
			<point x="178" y="568"/>
			<point x="70" y="568" type="curve" smooth="yes"/>
			<point x="24" y="568" type="line"/>
			<point x="24" y="396" type="line"/>
			<point x="38" y="396" type="line" smooth="yes"/>
			<point x="82" y="396"/>
			<point x="98" y="388"/>
			<point x="98" y="320" type="curve" smooth="yes"/>
			<point x="98" y="308"/>
			<point x="96" y="296"/>
			<point x="96" y="284" type="curve" smooth="yes"/>
			<point x="96" y="74"/>
			<point x="210" y="-12"/>
		</contour>
	</outline>
	<anchor name="aboveHE" x="335" y="530"/>
	<anchor name="belowPrimaryHE" x="355" y="-30"/>
	<anchor name="sinHE" x="100" y="500"/>
	<anchor name="centerHE" x="420" y="260"/>
	<anchor name="shinHE" x="515" y="500"/>
	<anchor name="aboveLeftHE" x="0" y="530"/>
</glyph>
<glyph name="heGeresh" format="2">
	<unicode hex="05F3"/>
	<advance width="284"/>
	<outline>
		<contour>
			<point x="43" y="301" type="line"/>
			<point x="149" y="306" type="line"/>
			<point x="258" y="573" type="line"/>
			<point x="112" y="567" type="line"/>
		</contour>
	</outline>
</glyph>
<glyph name="newsheqel.S" format="2">
	<unicode hex="20AA"/>
	<advance width="540"/>
	<outline>
		<contour>
			<point x="4" y="0" type="line"/>
			<point x="134" y="0" type="line"/>
			<point x="134" y="424" type="line"/>
			<point x="190" y="424" type="line" smooth="yes"/>
			<point x="249" y="424"/>
			<point x="286" y="402"/>
			<point x="286" y="332" type="curve" smooth="yes"/>
			<point x="286" y="222" type="line"/>
			<point x="370" y="222" type="line"/>
			<point x="370" y="400" type="line" smooth="yes"/>
			<point x="370" y="523"/>
			<point x="301" y="568"/>
			<point x="192" y="568" type="curve" smooth="yes"/>
			<point x="4" y="568" type="line"/>
		</contour>
		<contour>
			<point x="170" y="0" type="line"/>
			<point x="358" y="0" type="line" smooth="yes"/>
			<point x="467" y="0"/>
			<point x="536" y="45"/>
			<point x="536" y="168" type="curve" smooth="yes"/>
			<point x="536" y="568" type="line"/>
			<point x="406" y="568" type="line"/>
			<point x="406" y="236" type="line" smooth="yes"/>
			<point x="406" y="166"/>
			<point x="368" y="144"/>
			<point x="308" y="144" type="curve" smooth="yes"/>
			<point x="254" y="144" type="line"/>
			<point x="254" y="346" type="line"/>
			<point x="170" y="346" type="line"/>
		</contour>
	</outline>
	<guideline x="270" y="284" angle="90" identifier="51LWLohGsJ"/>
</glyph>
<glyph name="newsheqel" format="2">
	<unicode hex="20AA"/>
	<advance width="540"/>
	<outline>
		<contour>
			<point x="4" y="0" type="line"/>
			<point x="134" y="0" type="line"/>
			<point x="134" y="516" type="line"/>
			<point x="190" y="516" type="line" smooth="yes"/>
			<point x="249" y="516"/>
			<point x="286" y="494"/>
			<point x="286" y="424" type="curve" smooth="yes"/>
			<point x="286" y="196" type="line"/>
			<point x="370" y="196" type="line"/>
			<point x="370" y="466" type="line" smooth="yes"/>
			<point x="370" y="589"/>
			<point x="301" y="634"/>
			<point x="192" y="634" type="curve" smooth="yes"/>
			<point x="4" y="634" type="line"/>
		</contour>
		<contour>
			<point x="170" y="0" type="line"/>
			<point x="358" y="0" type="line" smooth="yes"/>
			<point x="467" y="0"/>
			<point x="536" y="45"/>
			<point x="536" y="168" type="curve" smooth="yes"/>
			<point x="536" y="634" type="line"/>
			<point x="406" y="634" type="line"/>
			<point x="406" y="210" type="line" smooth="yes"/>
			<point x="406" y="140"/>
			<point x="368" y="118"/>
			<point x="308" y="118" type="curve" smooth="yes"/>
			<point x="254" y="118" type="line"/>
			<point x="254" y="438" type="line"/>
			<point x="170" y="438" type="line"/>
		</contour>
	</outline>
	<guideline x="270" y="284" angle="90" identifier="51LWLohGsJ"/>
</glyph>
<glyph name="arrowup.S" format="2">
	<unicode hex="2191"/>
	<advance width="616"/>
	<outline>
		<contour>
			<point x="240" y="6" type="line"/>
			<point x="376" y="6" type="line"/>
			<point x="376" y="332" type="line"/>
			<point x="486" y="202" type="line"/>
			<point x="578" y="282" type="line"/>
			<point x="310" y="562" type="line"/>
			<point x="306" y="562" type="line"/>
			<point x="38" y="282" type="line"/>
			<point x="130" y="202" type="line"/>
			<point x="240" y="332" type="line"/>
		</contour>
	</outline>
</glyph>
<glyph name="arrowdown.S" format="2">
	<unicode hex="2193"/>
	<advance width="616"/>
	<outline>
		<contour>
			<point x="306" y="6" type="line"/>
			<point x="310" y="6" type="line"/>
			<point x="578" y="286" type="line"/>
			<point x="486" y="366" type="line"/>
			<point x="376" y="236" type="line"/>
			<point x="376" y="562" type="line"/>
			<point x="240" y="562" type="line"/>
			<point x="240" y="236" type="line"/>
			<point x="130" y="366" type="line"/>
			<point x="38" y="286" type="line"/>
		</contour>
	</outline>
</glyph>
<glyph name="arrowdownright.S" format="2">
	<unicode hex="2198"/>
	<advance width="616"/>
	<outline>
		<contour>
			<point x="513" y="86" type="line"/>
			<point x="516" y="89" type="line"/>
			<point x="508" y="476" type="line"/>
			<point x="386" y="468" type="line"/>
			<point x="400" y="298" type="line"/>
			<point x="170" y="529" type="line"/>
			<point x="73" y="432" type="line"/>
			<point x="304" y="202" type="line"/>
			<point x="134" y="216" type="line"/>
			<point x="126" y="94" type="line"/>
		</contour>
	</outline>
</glyph>
<glyph name="arrowdblleft.S" format="2">
	<unicode hex="21D0"/>
	<advance width="616"/>
	<outline>
		<contour>
			<point x="300" y="14" type="line"/>
			<point x="380" y="106" type="line"/>
			<point x="172" y="282" type="line"/>
			<point x="172" y="286" type="line"/>
			<point x="380" y="462" type="line"/>
			<point x="300" y="554" type="line"/>
			<point x="20" y="286" type="line"/>
			<point x="20" y="282" type="line"/>
		</contour>
		<contour>
			<point x="170" y="310" type="line"/>
			<point x="576" y="310" type="line"/>
			<point x="576" y="408" type="line"/>
			<point x="170" y="408" type="line"/>
		</contour>
		<contour>
			<point x="170" y="160" type="line"/>
			<point x="576" y="160" type="line"/>
			<point x="576" y="258" type="line"/>
			<point x="170" y="258" type="line"/>
		</contour>
	</outline>
</glyph>
<glyph name="arrowdblup.S" format="2">
	<unicode hex="21D1"/>
	<advance width="616"/>
	<outline>
		<contour>
			<point x="130" y="202" type="line"/>
			<point x="306" y="410" type="line"/>
			<point x="310" y="410" type="line"/>
			<point x="486" y="202" type="line"/>
			<point x="578" y="282" type="line"/>
			<point x="310" y="562" type="line"/>
			<point x="306" y="562" type="line"/>
			<point x="38" y="282" type="line"/>
		</contour>
		<contour>
			<point x="334" y="6" type="line"/>
			<point x="432" y="6" type="line"/>
			<point x="432" y="412" type="line"/>
			<point x="334" y="412" type="line"/>
		</contour>
		<contour>
			<point x="184" y="6" type="line"/>
			<point x="282" y="6" type="line"/>
			<point x="282" y="412" type="line"/>
			<point x="184" y="412" type="line"/>
		</contour>
	</outline>
</glyph>
<glyph name="heVarikaJud" format="2">
	<unicode hex="FB1E"/>
	<outline>
		<contour>
			<point x="0" y="569" type="curve" smooth="yes"/>
			<point x="94" y="569"/>
			<point x="142" y="632"/>
			<point x="146" y="709" type="curve"/>
			<point x="59" y="709" type="line"/>
			<point x="55" y="683"/>
			<point x="42" y="655"/>
			<point x="1" y="655" type="curve" smooth="yes"/>
			<point x="-35" y="655"/>
			<point x="-51" y="679"/>
			<point x="-57" y="709" type="curve"/>
			<point x="-145" y="709" type="line"/>
			<point x="-143" y="634"/>
			<point x="-98" y="569"/>
		</contour>
	</outline>
	<anchor name="_aboveHE" x="0" y="525"/>
	<guideline y="629" identifier="004QOttTDm"/>
</glyph>
<glyph name="heAlefWide" format="2">
	<unicode hex="FB21"/>
	<advance width="1436"/>
	<outline>
		<contour>
			<point x="1170" y="86" type="line"/>
			<point x="1357" y="232"/>
			<point x="1414" y="288"/>
			<point x="1414" y="424" type="curve" smooth="yes"/>
			<point x="1414" y="525"/>
			<point x="1360" y="568"/>
			<point x="1236" y="568" type="curve" smooth="yes"/>
			<point x="1154" y="568" type="line"/>
			<point x="1154" y="396" type="line"/>
			<point x="1172" y="396" type="line" smooth="yes"/>
			<point x="1242" y="396"/>
			<point x="1266" y="380"/>
			<point x="1266" y="348" type="curve" smooth="yes"/>
			<point x="1266" y="302"/>
			<point x="1220" y="256"/>
			<point x="1104" y="170" type="curve"/>
		</contour>
		<contour>
			<point x="56" y="0" type="curve"/>
			<point x="234" y="0" type="line"/>
			<point x="228" y="38"/>
			<point x="224" y="76"/>
			<point x="224" y="112" type="curve" smooth="yes"/>
			<point x="224" y="210"/>
			<point x="228" y="288"/>
			<point x="296" y="410" type="curve"/>
			<point x="200" y="438" type="line"/>
			<point x="100" y="344"/>
			<point x="54" y="204"/>
			<point x="54" y="44" type="curve" smooth="yes"/>
			<point x="54" y="28"/>
			<point x="54" y="16"/>
		</contour>
		<contour>
			<point x="1216" y="-12" type="curve"/>
			<point x="1438" y="44" type="line"/>
			<point x="818" y="276"/>
			<point x="642" y="360"/>
			<point x="238" y="576" type="curve"/>
			<point x="20" y="530" type="line"/>
			<point x="506" y="252"/>
			<point x="744" y="134"/>
		</contour>
	</outline>
	<anchor name="aboveHE" x="330" y="590"/>
	<anchor name="belowPrimaryHE" x="310" y="-22"/>
	<anchor name="aboveLeftHE" x="20" y="590"/>
	<anchor name="centerHE" x="276" y="90"/>
</glyph>
<glyph name="heKafWide" format="2">
	<unicode hex="FB24"/>
	<advance width="1362"/>
	<outline>
		<contour>
			<point x="44" y="0" type="line"/>
			<point x="1278" y="0" type="line"/>
			<point x="1290" y="102"/>
			<point x="1298" y="190"/>
			<point x="1298" y="302" type="curve" smooth="yes"/>
			<point x="1298" y="486"/>
			<point x="1220" y="568"/>
			<point x="1062" y="568" type="curve" smooth="yes"/>
			<point x="64" y="568" type="line"/>
			<point x="64" y="396" type="line"/>
			<point x="982" y="396" type="line" smooth="yes"/>
			<point x="1112" y="396"/>
			<point x="1150" y="344"/>
			<point x="1150" y="200" type="curve" smooth="yes"/>
			<point x="1150" y="188"/>
			<point x="1149" y="178"/>
			<point x="1148" y="166" type="curve"/>
			<point x="44" y="166" type="line"/>
		</contour>
	</outline>
	<anchor name="aboveHE" x="660" y="590"/>
	<anchor name="belowPrimaryHE" x="660" y="-22"/>
	<anchor name="centerHE" x="610" y="280"/>
	<anchor name="aboveLeftHE" x="40" y="590"/>
</glyph>
<glyph name="heMemFinWide" format="2">
	<unicode hex="FB26"/>
	<advance width="1478"/>
	<outline>
		<contour>
			<point x="158" y="0" type="line"/>
			<point x="1406" y="0" type="line"/>
			<point x="1406" y="352" type="line" smooth="yes"/>
			<point x="1406" y="508"/>
			<point x="1322" y="568"/>
			<point x="1200" y="568" type="curve" smooth="yes"/>
			<point x="64" y="568" type="line"/>
			<point x="64" y="396" type="line"/>
			<point x="1128" y="396" type="line" smooth="yes"/>
			<point x="1208" y="396"/>
			<point x="1258" y="368"/>
			<point x="1258" y="270" type="curve" smooth="yes"/>
			<point x="1258" y="164" type="line"/>
			<point x="158" y="164" type="line"/>
		</contour>
		<contour>
			<point x="94" y="0" type="line"/>
			<point x="242" y="0" type="line"/>
			<point x="242" y="396" type="line"/>
			<point x="118" y="396" type="line"/>
			<point x="104" y="352"/>
			<point x="94" y="306"/>
			<point x="94" y="246" type="curve" smooth="yes"/>
		</contour>
	</outline>
	<anchor name="aboveHE" x="740" y="590"/>
	<anchor name="belowPrimaryHE" x="740" y="-22"/>
	<anchor name="centerHE" x="740" y="280"/>
	<anchor name="aboveLeftHE" x="40" y="590"/>
</glyph>
<glyph name="plusalt" format="2">
	<unicode hex="FB29"/>
	<advance width="540"/>
	<outline>
		<contour>
			<point x="34" y="270" type="line"/>
			<point x="506" y="270" type="line"/>
			<point x="506" y="390" type="line"/>
			<point x="332" y="390" type="line"/>
			<point x="332" y="570" type="line"/>
			<point x="208" y="570" type="line"/>
			<point x="208" y="390" type="line"/>
			<point x="34" y="390" type="line"/>
		</contour>
	</outline>
</glyph>
<glyph name="ugAlpa" format="2">
	<unicode hex="10380"/>
	<advance width="758"/>
	<outline>
		<contour>
			<point x="48" y="162" type="line"/>
			<point x="147" y="231"/>
			<point x="286" y="246"/>
			<point x="514" y="246" type="curve"/>
			<point x="514" y="322" type="line"/>
			<point x="286" y="322"/>
			<point x="147" y="337"/>
			<point x="48" y="406" type="curve"/>
		</contour>
		<contour>
			<point x="312" y="162" type="line"/>
			<point x="403" y="226"/>
			<point x="526" y="246"/>
			<point x="730" y="246" type="curve"/>
			<point x="730" y="322" type="line"/>
			<point x="526" y="322"/>
			<point x="403" y="342"/>
			<point x="312" y="406" type="curve"/>
		</contour>
	</outline>
</glyph>
<glyph name="ugBeta" format="2">
	<unicode hex="10381"/>
	<advance width="758"/>
	<outline>
		<contour>
			<point x="144" y="208" type="curve"/>
			<point x="226" y="208" type="line"/>
			<point x="226" y="412"/>
			<point x="245" y="534"/>
			<point x="310" y="626" type="curve"/>
			<point x="60" y="626" type="line"/>
			<point x="125" y="534"/>
			<point x="144" y="412"/>
		</contour>
		<contour>
			<point x="408" y="208" type="curve"/>
			<point x="490" y="208" type="line"/>
			<point x="490" y="412"/>
			<point x="509" y="534"/>
			<point x="574" y="626" type="curve"/>
			<point x="324" y="626" type="line"/>
			<point x="389" y="534"/>
			<point x="408" y="412"/>
		</contour>
		<component base="ugAlpa" yOffset="-50"/>
	</outline>
</glyph>
<glyph name="ugGamla" format="2">
	<unicode hex="10382"/>
	<advance width="378"/>
	<outline>
		<contour>
			<point x="148" y="-56" type="curve"/>
			<point x="230" y="-56" type="line"/>
			<point x="230" y="278"/>
			<point x="230" y="499"/>
			<point x="314" y="626" type="curve"/>
			<point x="64" y="626" type="line"/>
			<point x="148" y="499"/>
			<point x="148" y="278"/>
		</contour>
	</outline>
</glyph>
<glyph name="ugDelta" format="2">
	<unicode hex="10384"/>
	<advance width="794"/>
	<outline>
		<contour>
			<point x="120" y="208" type="curve"/>
			<point x="202" y="208" type="line"/>
			<point x="202" y="412"/>
			<point x="222" y="534"/>
			<point x="274" y="626" type="curve"/>
			<point x="36" y="626" type="line"/>
			<point x="103" y="531"/>
			<point x="120" y="412"/>
		</contour>
		<contour>
			<point x="351" y="208" type="curve"/>
			<point x="432" y="208" type="line"/>
			<point x="432" y="412"/>
			<point x="453" y="534"/>
			<point x="504" y="626" type="curve"/>
			<point x="279" y="626" type="line"/>
			<point x="330" y="534"/>
			<point x="351" y="412"/>
		</contour>
		<contour>
			<point x="581" y="208" type="curve"/>
			<point x="663" y="208" type="line"/>
			<point x="663" y="412"/>
			<point x="679" y="531"/>
			<point x="747" y="626" type="curve"/>
			<point x="509" y="626" type="line"/>
			<point x="561" y="534"/>
			<point x="581" y="412"/>
		</contour>
		<component base="ugNun" yOffset="-50"/>
	</outline>
</glyph>
<glyph name="ugZeta" format="2">
	<unicode hex="10387"/>
	<advance width="378"/>
	<outline>
		<contour>
			<point x="148" y="160" type="curve"/>
			<point x="230" y="160" type="line"/>
			<point x="230" y="388"/>
			<point x="242" y="523"/>
			<point x="314" y="626" type="curve"/>
			<point x="64" y="626" type="line"/>
			<point x="136" y="523"/>
			<point x="148" y="388"/>
		</contour>
		<contour>
			<point x="148" y="-56" type="curve"/>
			<point x="230" y="-56" type="line"/>
			<point x="230" y="148"/>
			<point x="247" y="267"/>
			<point x="314" y="362" type="curve"/>
			<point x="64" y="362" type="line"/>
			<point x="131" y="267"/>
			<point x="148" y="148"/>
		</contour>
	</outline>
</glyph>
<glyph name="ugMem" format="2">
	<unicode hex="1038E"/>
	<advance width="678"/>
	<outline>
		<contour>
			<point x="48" y="163" type="line"/>
			<point x="151" y="235"/>
			<point x="286" y="247"/>
			<point x="514" y="247" type="curve"/>
			<point x="514" y="323" type="line"/>
			<point x="286" y="323"/>
			<point x="151" y="335"/>
			<point x="48" y="407" type="curve"/>
		</contour>
		<component base="ugGamla" xOffset="300"/>
	</outline>
</glyph>
<glyph name="ugDhal" format="2">
	<unicode hex="1038F"/>
	<advance width="754"/>
	<outline>
		<contour>
			<point x="347" y="-52" type="curve"/>
			<point x="429" y="-52" type="line"/>
			<point x="594" y="190"/>
			<point x="729" y="373"/>
			<point x="861" y="419" type="curve"/>
			<point x="664" y="574" type="line"/>
			<point x="652" y="435"/>
			<point x="538" y="254"/>
			<point x="388" y="32" type="curve"/>
			<point x="238" y="254"/>
			<point x="124" y="435"/>
			<point x="112" y="574" type="curve"/>
			<point x="-85" y="419" type="line"/>
			<point x="47" y="373"/>
			<point x="182" y="190"/>
		</contour>
	</outline>
</glyph>
<glyph name="ugNun" format="2">
	<unicode hex="10390"/>
	<advance width="794"/>
	<outline>
		<contour>
			<point x="492" y="162" type="line"/>
			<point x="564" y="213"/>
			<point x="694" y="246"/>
			<point x="766" y="246" type="curve"/>
			<point x="766" y="322" type="line"/>
			<point x="694" y="322"/>
			<point x="564" y="355"/>
			<point x="492" y="406" type="curve"/>
		</contour>
		<contour>
			<point x="48" y="162" type="line"/>
			<point x="120" y="213"/>
			<point x="250" y="246"/>
			<point x="322" y="246" type="curve"/>
			<point x="322" y="322" type="line"/>
			<point x="250" y="322"/>
			<point x="120" y="355"/>
			<point x="48" y="406" type="curve"/>
		</contour>
		<contour>
			<point x="276" y="162" type="line"/>
			<point x="348" y="213"/>
			<point x="478" y="246"/>
			<point x="550" y="246" type="curve"/>
			<point x="550" y="322" type="line"/>
			<point x="478" y="322"/>
			<point x="348" y="355"/>
			<point x="276" y="406" type="curve"/>
		</contour>
	</outline>
</glyph>
<glyph name="ugZu" format="2">
	<unicode hex="10391"/>
	<advance width="654"/>
	<outline>
		<contour>
			<point x="48" y="302" type="line"/>
			<point x="156" y="370"/>
			<point x="320" y="386"/>
			<point x="540" y="386" type="curve"/>
			<point x="540" y="462" type="line"/>
			<point x="320" y="462"/>
			<point x="156" y="478"/>
			<point x="48" y="546" type="curve"/>
		</contour>
		<contour>
			<point x="48" y="32" type="line"/>
			<point x="156" y="100"/>
			<point x="320" y="116"/>
			<point x="540" y="116" type="curve"/>
			<point x="540" y="192" type="line"/>
			<point x="320" y="192"/>
			<point x="156" y="208"/>
			<point x="48" y="276" type="curve"/>
		</contour>
		<contour>
			<point x="620" y="28" type="line"/>
			<point x="626" y="32" type="line"/>
			<point x="588" y="94"/>
			<point x="554" y="180"/>
			<point x="554" y="288" type="curve" smooth="yes"/>
			<point x="554" y="396"/>
			<point x="588" y="482"/>
			<point x="626" y="544" type="curve"/>
			<point x="620" y="548" type="line"/>
			<point x="343" y="288" type="line"/>
		</contour>
	</outline>
</glyph>
<glyph name="ugAin" format="2">
	<unicode hex="10393"/>
	<advance width="560"/>
	<outline>
		<contour>
			<point x="20" y="154" type="line"/>
			<point x="24" y="148" type="line"/>
			<point x="110" y="210"/>
			<point x="196" y="242"/>
			<point x="280" y="242" type="curve" smooth="yes"/>
			<point x="364" y="242"/>
			<point x="450" y="210"/>
			<point x="536" y="148" type="curve"/>
			<point x="540" y="154" type="line"/>
			<point x="280" y="446" type="line"/>
		</contour>
	</outline>
</glyph>
<glyph name="ugQopa" format="2">
	<unicode hex="10396"/>
	<advance width="658"/>
	<outline>
		<contour>
			<point x="48" y="162" type="line"/>
			<point x="130" y="220"/>
			<point x="204" y="246"/>
			<point x="329" y="246" type="curve"/>
			<point x="329" y="322" type="line"/>
			<point x="204" y="322"/>
			<point x="130" y="348"/>
			<point x="48" y="406" type="curve"/>
		</contour>
		<contour>
			<point x="610" y="162" type="curve"/>
			<point x="610" y="406" type="line"/>
			<point x="535" y="354"/>
			<point x="454" y="322"/>
			<point x="329" y="322" type="curve"/>
			<point x="329" y="246" type="line"/>
			<point x="454" y="246"/>
			<point x="535" y="214"/>
		</contour>
	</outline>
	<guideline x="288" y="284" angle="90" identifier="VFyrfB9JO7"/>
</glyph>
<glyph name="ugTo" format="2">
	<unicode hex="1039A"/>
	<advance width="758"/>
	<outline>
		<contour>
			<point x="48" y="162" type="line"/>
			<point x="181" y="246"/>
			<point x="396" y="246"/>
			<point x="730" y="246" type="curve"/>
			<point x="730" y="322" type="line"/>
			<point x="396" y="322"/>
			<point x="181" y="322"/>
			<point x="48" y="406" type="curve"/>
		</contour>
	</outline>
</glyph>
<glyph name="ugSsu" format="2">
	<unicode hex="1039D"/>
	<advance width="818"/>
	<outline>
		<contour>
			<point x="64" y="428" type="curve"/>
			<point x="314" y="428" type="line"/>
			<point x="251" y="502"/>
			<point x="218" y="591"/>
			<point x="218" y="625" type="curve"/>
			<point x="160" y="625" type="line"/>
			<point x="160" y="591"/>
			<point x="127" y="502"/>
		</contour>
		<contour>
			<point x="64" y="-57" type="curve"/>
			<point x="314" y="-57" type="line"/>
			<point x="251" y="18"/>
			<point x="218" y="106"/>
			<point x="218" y="140" type="curve"/>
			<point x="160" y="140" type="line"/>
			<point x="160" y="106"/>
			<point x="127" y="18"/>
		</contour>
		<contour>
			<point x="64" y="186" type="curve"/>
			<point x="314" y="186" type="line"/>
			<point x="251" y="261"/>
			<point x="218" y="349"/>
			<point x="218" y="382" type="curve"/>
			<point x="160" y="382" type="line"/>
			<point x="160" y="349"/>
			<point x="127" y="261"/>
		</contour>
		<contour>
			<point x="504" y="428" type="curve"/>
			<point x="754" y="428" type="line"/>
			<point x="691" y="502"/>
			<point x="658" y="591"/>
			<point x="658" y="625" type="curve"/>
			<point x="600" y="625" type="line"/>
			<point x="600" y="591"/>
			<point x="567" y="502"/>
		</contour>
		<contour>
			<point x="504" y="-57" type="curve"/>
			<point x="754" y="-57" type="line"/>
			<point x="691" y="18"/>
			<point x="658" y="106"/>
			<point x="658" y="140" type="curve"/>
			<point x="600" y="140" type="line"/>
			<point x="600" y="106"/>
			<point x="567" y="18"/>
		</contour>
		<contour>
			<point x="504" y="186" type="curve"/>
			<point x="754" y="186" type="line"/>
			<point x="691" y="261"/>
			<point x="658" y="349"/>
			<point x="658" y="382" type="curve"/>
			<point x="600" y="382" type="line"/>
			<point x="600" y="349"/>
			<point x="567" y="261"/>
		</contour>
		<component base="ugGamla" xOffset="220"/>
	</outline>
</glyph>
<glyph name="aiBeth" format="2">
	<unicode hex="10841"/>
	<advance width="506"/>
	<outline>
		<contour>
			<point x="44" y="0" type="line"/>
			<point x="153" y="0" type="line" smooth="yes"/>
			<point x="346" y="0"/>
			<point x="478" y="154"/>
			<point x="478" y="352" type="curve" smooth="yes"/>
			<point x="478" y="501"/>
			<point x="408" y="568"/>
			<point x="262" y="568" type="curve" smooth="yes"/>
			<point x="250" y="568" type="line" smooth="yes"/>
			<point x="195" y="568"/>
			<point x="176" y="584"/>
			<point x="176" y="620" type="curve" smooth="yes"/>
			<point x="176" y="648"/>
			<point x="176" y="676"/>
			<point x="180" y="730" type="curve"/>
			<point x="40" y="718" type="line"/>
			<point x="30" y="663"/>
			<point x="28" y="606"/>
			<point x="28" y="560" type="curve" smooth="yes"/>
			<point x="28" y="456"/>
			<point x="94" y="396"/>
			<point x="196" y="396" type="curve" smooth="yes"/>
			<point x="202" y="396" type="line" smooth="yes"/>
			<point x="290" y="396"/>
			<point x="326" y="368"/>
			<point x="326" y="290" type="curve" smooth="yes"/>
			<point x="326" y="218"/>
			<point x="276" y="166"/>
			<point x="170" y="166" type="curve" smooth="yes"/>
			<point x="44" y="166" type="line"/>
		</contour>
	</outline>
</glyph>
<glyph name="aiZayin" format="2">
	<unicode hex="10846"/>
	<advance width="314"/>
	<outline>
		<contour>
			<point x="94" y="0" type="line"/>
			<point x="242" y="0" type="line"/>
			<point x="242" y="568" type="line"/>
			<point x="94" y="568" type="line"/>
		</contour>
	</outline>
</glyph>
<glyph name="aiMem" format="2">
	<unicode hex="1084C"/>
	<advance width="598"/>
	<outline>
		<contour>
			<point x="150" y="158" type="line"/>
			<point x="340" y="278"/>
			<point x="402" y="478"/>
			<point x="402" y="638" type="curve" smooth="yes"/>
			<point x="402" y="671"/>
			<point x="402" y="695"/>
			<point x="400" y="730" type="curve"/>
			<point x="248" y="718" type="line"/>
			<point x="256" y="665"/>
			<point x="264" y="618"/>
			<point x="264" y="504" type="curve" smooth="yes"/>
			<point x="264" y="420"/>
			<point x="200" y="360"/>
			<point x="58" y="282" type="curve"/>
		</contour>
		<contour>
			<point x="208" y="-168" type="line"/>
			<point x="454" y="64"/>
			<point x="560" y="232"/>
			<point x="560" y="408" type="curve" smooth="yes"/>
			<point x="560" y="514"/>
			<point x="508" y="568"/>
			<point x="348" y="568" type="curve" smooth="yes"/>
			<point x="250" y="568" type="line" smooth="yes"/>
			<point x="195" y="568"/>
			<point x="176" y="584"/>
			<point x="176" y="620" type="curve" smooth="yes"/>
			<point x="176" y="648"/>
			<point x="176" y="676"/>
			<point x="180" y="730" type="curve"/>
			<point x="40" y="718" type="line"/>
			<point x="30" y="663"/>
			<point x="28" y="606"/>
			<point x="28" y="560" type="curve" smooth="yes"/>
			<point x="28" y="456"/>
			<point x="94" y="396"/>
			<point x="196" y="396" type="curve" smooth="yes"/>
			<point x="332" y="396" type="line" smooth="yes"/>
			<point x="390" y="396"/>
			<point x="412" y="386"/>
			<point x="412" y="346" type="curve" smooth="yes"/>
			<point x="412" y="260"/>
			<point x="338" y="140"/>
			<point x="112" y="-38" type="curve"/>
		</contour>
	</outline>
</glyph>
<glyph name="aiNun" format="2">
	<unicode hex="1084D"/>
	<advance width="368"/>
	<outline>
		<contour>
			<point x="78" y="-168" type="line"/>
			<point x="242" y="21"/>
			<point x="330" y="232"/>
			<point x="330" y="348" type="curve" smooth="yes"/>
			<point x="330" y="516"/>
			<point x="176" y="485"/>
			<point x="176" y="660" type="curve" smooth="yes"/>
			<point x="176" y="678"/>
			<point x="178" y="696"/>
			<point x="180" y="730" type="curve"/>
			<point x="40" y="718" type="line"/>
			<point x="32" y="677"/>
			<point x="28" y="634"/>
			<point x="28" y="600" type="curve" smooth="yes"/>
			<point x="28" y="424"/>
			<point x="182" y="450"/>
			<point x="182" y="286" type="curve" smooth="yes"/>
			<point x="182" y="190"/>
			<point x="106" y="95"/>
			<point x="-38" y="-48" type="curve"/>
		</contour>
	</outline>
</glyph>
<glyph name="aiSamekh" format="2">
	<unicode hex="1084E"/>
	<advance width="578"/>
	<outline>
		<contour>
			<point x="130" y="158" type="line"/>
			<point x="320" y="278"/>
			<point x="382" y="478"/>
			<point x="382" y="638" type="curve" smooth="yes"/>
			<point x="382" y="671"/>
			<point x="382" y="695"/>
			<point x="380" y="730" type="curve"/>
			<point x="228" y="718" type="line"/>
			<point x="236" y="665"/>
			<point x="244" y="618"/>
			<point x="244" y="504" type="curve" smooth="yes"/>
			<point x="244" y="420"/>
			<point x="180" y="360"/>
			<point x="38" y="282" type="curve"/>
		</contour>
		<contour>
			<point x="188" y="-168" type="line"/>
			<point x="434" y="64"/>
			<point x="540" y="232"/>
			<point x="540" y="408" type="curve" smooth="yes"/>
			<point x="540" y="514"/>
			<point x="488" y="568"/>
			<point x="328" y="568" type="curve" smooth="yes"/>
			<point x="14" y="568" type="line"/>
			<point x="14" y="396" type="line"/>
			<point x="312" y="396" type="line" smooth="yes"/>
			<point x="370" y="396"/>
			<point x="392" y="386"/>
			<point x="392" y="346" type="curve" smooth="yes"/>
			<point x="392" y="260"/>
			<point x="318" y="140"/>
			<point x="92" y="-38" type="curve"/>
		</contour>
	</outline>
</glyph>
<glyph name="aiPe" format="2">
	<unicode hex="10850"/>
	<advance width="528"/>
	<outline>
		<contour>
			<point x="138" y="-168" type="line"/>
			<point x="392" y="35"/>
			<point x="500" y="194"/>
			<point x="500" y="358" type="curve" smooth="yes"/>
			<point x="500" y="482"/>
			<point x="444" y="580"/>
			<point x="298" y="580" type="curve" smooth="yes"/>
			<point x="154" y="580"/>
			<point x="41" y="487"/>
			<point x="44" y="280" type="curve"/>
			<point x="188" y="280" type="line"/>
			<point x="194" y="379"/>
			<point x="224" y="410"/>
			<point x="280" y="410" type="curve" smooth="yes"/>
			<point x="332" y="410"/>
			<point x="352" y="372"/>
			<point x="352" y="326" type="curve" smooth="yes"/>
			<point x="352" y="234"/>
			<point x="279" y="115"/>
			<point x="42" y="-38" type="curve"/>
		</contour>
	</outline>
</glyph>
<glyph name="aiSadhe" format="2">
	<unicode hex="10851"/>
	<advance width="566"/>
	<outline>
		<contour>
			<point x="390" y="88" type="line"/>
			<point x="490" y="204"/>
			<point x="528" y="301"/>
			<point x="528" y="408" type="curve" smooth="yes"/>
			<point x="528" y="513"/>
			<point x="476" y="568"/>
			<point x="316" y="568" type="curve" smooth="yes"/>
			<point x="166" y="568" type="line"/>
			<point x="132" y="396" type="line"/>
			<point x="300" y="396" type="line" smooth="yes"/>
			<point x="357" y="396"/>
			<point x="380" y="386"/>
			<point x="380" y="346" type="curve" smooth="yes"/>
			<point x="380" y="298"/>
			<point x="352" y="246"/>
			<point x="284" y="184" type="curve"/>
		</contour>
		<contour>
			<point x="94" y="-156" type="line"/>
			<point x="242" y="-156" type="line"/>
			<point x="242" y="722" type="line"/>
			<point x="94" y="722" type="line"/>
		</contour>
	</outline>
</glyph>
<glyph name="pmYodh" format="2">
	<unicode hex="10869"/>
	<advance width="600"/>
	<outline>
		<contour>
			<point x="24" y="220" type="curve"/>
			<point x="184" y="220" type="line"/>
			<point x="184" y="357"/>
			<point x="220" y="410"/>
			<point x="274" y="410" type="curve" smooth="yes"/>
			<point x="326" y="410"/>
			<point x="360" y="363"/>
			<point x="360" y="212" type="curve"/>
			<point x="540" y="228" type="line"/>
			<point x="540" y="484"/>
			<point x="429" y="580"/>
			<point x="292" y="580" type="curve" smooth="yes"/>
			<point x="140" y="580"/>
			<point x="24" y="463"/>
		</contour>
	</outline>
</glyph>
<glyph name="hrHe" format="2">
	<unicode hex="108E4"/>
	<advance width="636"/>
	<outline>
		<contour>
			<point x="56" y="0" type="curve"/>
			<point x="234" y="0" type="line"/>
			<point x="228" y="38"/>
			<point x="224" y="76"/>
			<point x="224" y="112" type="curve" smooth="yes"/>
			<point x="224" y="180"/>
			<point x="224" y="256"/>
			<point x="256" y="340" type="curve"/>
			<point x="160" y="368" type="line"/>
			<point x="98" y="295"/>
			<point x="54" y="168"/>
			<point x="54" y="44" type="curve" smooth="yes"/>
			<point x="54" y="28"/>
			<point x="54" y="16"/>
		</contour>
		<contour>
			<point x="452" y="-12" type="curve"/>
			<point x="638" y="34" type="line"/>
			<point x="483" y="174"/>
			<point x="287" y="390"/>
			<point x="202" y="576" type="curve"/>
			<point x="20" y="540" type="line"/>
			<point x="123" y="350"/>
			<point x="311" y="107"/>
		</contour>
		<component base="aiZayin" xOffset="376"/>
	</outline>
	<anchor name="aboveHE" x="330" y="590"/>
	<anchor name="belowPrimaryHE" x="310" y="-22"/>
	<anchor name="aboveLeftHE" x="20" y="590"/>
	<anchor name="centerHE" x="276" y="90"/>
</glyph>
<glyph name="hrTeth" format="2">
	<unicode hex="108E8"/>
	<advance width="620"/>
	<outline>
		<contour>
			<point x="324" y="-12" type="curve" smooth="yes"/>
			<point x="448" y="-12"/>
			<point x="558" y="68"/>
			<point x="558" y="204" type="curve" smooth="yes"/>
			<point x="558" y="302"/>
			<point x="504" y="368"/>
			<point x="380" y="368" type="curve" smooth="yes"/>
			<point x="328" y="368" type="line"/>
			<point x="328" y="216" type="line"/>
			<point x="356" y="216" type="line" smooth="yes"/>
			<point x="396" y="216"/>
			<point x="410" y="207"/>
			<point x="410" y="188" type="curve" smooth="yes"/>
			<point x="410" y="172"/>
			<point x="392" y="160"/>
			<point x="362" y="160" type="curve" smooth="yes"/>
			<point x="296" y="160"/>
			<point x="270" y="197"/>
			<point x="270" y="242" type="curve" smooth="yes"/>
			<point x="270" y="334"/>
			<point x="348" y="450"/>
			<point x="590" y="606" type="curve"/>
			<point x="494" y="736" type="line"/>
			<point x="236" y="530"/>
			<point x="122" y="374"/>
			<point x="122" y="210" type="curve" smooth="yes"/>
			<point x="122" y="86"/>
			<point x="178" y="-12"/>
		</contour>
	</outline>
</glyph>
<glyph name="hrNun" format="2">
	<unicode hex="108ED"/>
	<advance width="366"/>
	<outline>
		<contour>
			<point x="14" y="-188" type="line"/>
			<point x="98" y="-188" type="line" smooth="yes"/>
			<point x="214" y="-188"/>
			<point x="294" y="-134"/>
			<point x="294" y="8" type="curve" smooth="yes"/>
			<point x="294" y="568" type="line"/>
			<point x="146" y="568" type="line"/>
			<point x="146" y="90" type="line" smooth="yes"/>
			<point x="146" y="8"/>
			<point x="104" y="-16"/>
			<point x="36" y="-16" type="curve" smooth="yes"/>
			<point x="14" y="-16" type="line"/>
		</contour>
	</outline>
</glyph>
<glyph name="hrPe" format="2">
	<unicode hex="108F0"/>
	<advance width="618"/>
	<outline>
		<contour>
			<point x="402" y="-156" type="line"/>
			<point x="550" y="-156" type="line"/>
			<point x="550" y="342" type="line" smooth="yes"/>
			<point x="550" y="522"/>
			<point x="454" y="580"/>
			<point x="314" y="580" type="curve" smooth="yes"/>
			<point x="194" y="580"/>
			<point x="82" y="496"/>
			<point x="82" y="342" type="curve" smooth="yes"/>
			<point x="82" y="232"/>
			<point x="136" y="158"/>
			<point x="260" y="158" type="curve" smooth="yes"/>
			<point x="312" y="158" type="line"/>
			<point x="312" y="330" type="line"/>
			<point x="284" y="330" type="line" smooth="yes"/>
			<point x="244" y="330"/>
			<point x="230" y="340"/>
			<point x="230" y="364" type="curve" smooth="yes"/>
			<point x="230" y="389"/>
			<point x="258" y="408"/>
			<point x="288" y="408" type="curve" smooth="yes"/>
			<point x="364" y="408"/>
			<point x="402" y="388"/>
			<point x="402" y="270" type="curve" smooth="yes"/>
		</contour>
	</outline>
</glyph>
<glyph name="pnAlf" format="2">
	<unicode hex="10900"/>
	<advance width="564"/>
	<outline>
		<contour>
			<point x="78" y="310" type="line"/>
			<point x="496" y="310" type="line"/>
			<point x="496" y="432" type="line"/>
			<point x="78" y="432" type="line"/>
		</contour>
		<contour>
			<point x="282" y="-12" type="curve" smooth="yes"/>
			<point x="443" y="-12"/>
			<point x="566" y="99"/>
			<point x="566" y="532" type="curve"/>
			<point x="386" y="532" type="line"/>
			<point x="386" y="174"/>
			<point x="354" y="136"/>
			<point x="300" y="136" type="curve" smooth="yes"/>
			<point x="246" y="136"/>
			<point x="214" y="176"/>
			<point x="214" y="540" type="curve"/>
			<point x="14" y="524" type="line"/>
			<point x="14" y="89"/>
			<point x="133" y="-12"/>
		</contour>
	</outline>
</glyph>
<glyph name="pnDelt" format="2">
	<unicode hex="10903"/>
	<advance width="566"/>
	<outline>
		<contour>
			<point x="309" y="0" type="curve" smooth="yes"/>
			<point x="494" y="0" type="line"/>
			<point x="494" y="568" type="line"/>
			<point x="320" y="568" type="line" smooth="yes"/>
			<point x="167" y="568"/>
			<point x="48" y="500"/>
			<point x="48" y="288" type="curve" smooth="yes"/>
			<point x="48" y="74"/>
			<point x="167" y="0"/>
		</contour>
		<contour>
			<point x="309" y="172" type="line" smooth="yes"/>
			<point x="240" y="172"/>
			<point x="196" y="202"/>
			<point x="196" y="288" type="curve" smooth="yes"/>
			<point x="196" y="373"/>
			<point x="240" y="396"/>
			<point x="309" y="396" type="curve" smooth="yes"/>
			<point x="346" y="396" type="line"/>
			<point x="346" y="172" type="line"/>
		</contour>
		<contour>
			<point x="346" y="-120" type="line"/>
			<point x="494" y="-120" type="line"/>
			<point x="494" y="448" type="line"/>
			<point x="346" y="276" type="line"/>
		</contour>
	</outline>
</glyph>
<glyph name="pnHe" format="2">
	<unicode hex="10904"/>
	<advance width="518"/>
	<outline>
		<contour>
			<point x="274" y="-156" type="line"/>
			<point x="446" y="-156" type="line"/>
			<point x="446" y="532" type="line"/>
			<point x="64" y="532" type="line"/>
			<point x="64" y="384" type="line"/>
			<point x="274" y="384" type="line"/>
			<point x="274" y="332" type="line"/>
			<point x="104" y="332" type="line"/>
			<point x="104" y="204" type="line"/>
			<point x="274" y="204" type="line"/>
			<point x="274" y="148" type="line"/>
			<point x="64" y="148" type="line"/>
			<point x="64" y="0" type="line"/>
			<point x="274" y="0" type="line"/>
		</contour>
	</outline>
</glyph>
<glyph name="pnLamd" format="2">
	<unicode hex="1090B"/>
	<advance width="508"/>
	<outline>
		<contour>
			<point x="92" y="0" type="line"/>
			<point x="464" y="0" type="line"/>
			<point x="464" y="172" type="line"/>
			<point x="240" y="172" type="line"/>
			<point x="240" y="686" type="line"/>
			<point x="92" y="686" type="line"/>
		</contour>
	</outline>
</glyph>
<glyph name="pnMem" format="2">
	<unicode hex="1090C"/>
	<advance width="828"/>
	<outline>
		<contour>
			<point x="608" y="-156" type="line"/>
			<point x="756" y="-156" type="line"/>
			<point x="756" y="532" type="line"/>
			<point x="614" y="532" type="line"/>
			<point x="614" y="406"/>
			<point x="581" y="282"/>
			<point x="530" y="282" type="curve" smooth="yes"/>
			<point x="496" y="282"/>
			<point x="474" y="308"/>
			<point x="474" y="538" type="curve"/>
			<point x="324" y="522" type="line"/>
			<point x="324" y="396"/>
			<point x="295" y="282"/>
			<point x="250" y="282" type="curve" smooth="yes"/>
			<point x="210" y="282"/>
			<point x="184" y="308"/>
			<point x="184" y="540" type="curve"/>
			<point x="24" y="524" type="line"/>
			<point x="24" y="190"/>
			<point x="113" y="112"/>
			<point x="222" y="112" type="curve" smooth="yes"/>
			<point x="284" y="112"/>
			<point x="346" y="150"/>
			<point x="388" y="236" type="curve"/>
			<point x="362" y="236" type="line"/>
			<point x="390" y="146"/>
			<point x="436" y="112"/>
			<point x="502" y="112" type="curve" smooth="yes"/>
			<point x="544" y="112"/>
			<point x="594" y="130"/>
			<point x="630" y="172" type="curve"/>
			<point x="628" y="200" type="line"/>
			<point x="610" y="100"/>
			<point x="608" y="44"/>
			<point x="608" y="-10" type="curve" smooth="yes"/>
		</contour>
	</outline>
</glyph>
<glyph name="pnSemk" format="2">
	<unicode hex="1090E"/>
	<advance width="632"/>
	<outline>
		<contour>
			<point x="252" y="-156" type="line"/>
			<point x="400" y="-156" type="line"/>
			<point x="400" y="24" type="line"/>
			<point x="588" y="24" type="line"/>
			<point x="588" y="176" type="line"/>
			<point x="400" y="176" type="line"/>
			<point x="400" y="212" type="line"/>
			<point x="548" y="212" type="line"/>
			<point x="548" y="344" type="line"/>
			<point x="400" y="344" type="line"/>
			<point x="400" y="380" type="line"/>
			<point x="588" y="380" type="line"/>
			<point x="588" y="532" type="line"/>
			<point x="64" y="532" type="line"/>
			<point x="64" y="380" type="line"/>
			<point x="252" y="380" type="line"/>
			<point x="252" y="344" type="line"/>
			<point x="104" y="344" type="line"/>
			<point x="104" y="212" type="line"/>
			<point x="252" y="212" type="line"/>
			<point x="252" y="176" type="line"/>
			<point x="64" y="176" type="line"/>
			<point x="64" y="24" type="line"/>
			<point x="252" y="24" type="line"/>
		</contour>
	</outline>
	<guideline x="264" identifier="ZERkEcgpwh"/>
</glyph>
<glyph name="pnAin" format="2">
	<unicode hex="1090F"/>
	<advance width="594"/>
	<outline>
		<contour>
			<point x="308" y="12" type="curve" smooth="yes"/>
			<point x="461" y="12"/>
			<point x="566" y="110"/>
			<point x="566" y="280" type="curve" smooth="yes"/>
			<point x="566" y="450"/>
			<point x="461" y="544"/>
			<point x="308" y="544" type="curve" smooth="yes"/>
			<point x="153" y="544"/>
			<point x="48" y="451"/>
			<point x="48" y="280" type="curve" smooth="yes"/>
			<point x="48" y="110"/>
			<point x="153" y="12"/>
		</contour>
		<contour>
			<point x="308" y="184" type="curve" smooth="yes"/>
			<point x="236" y="184"/>
			<point x="196" y="220"/>
			<point x="196" y="280" type="curve" smooth="yes"/>
			<point x="196" y="340"/>
			<point x="236" y="372"/>
			<point x="308" y="372" type="curve" smooth="yes"/>
			<point x="378" y="372"/>
			<point x="418" y="340"/>
			<point x="418" y="280" type="curve" smooth="yes"/>
			<point x="418" y="220"/>
			<point x="378" y="184"/>
		</contour>
	</outline>
</glyph>
<glyph name="pnPe" format="2">
	<unicode hex="10910"/>
	<advance width="658"/>
	<outline>
		<contour>
			<point x="358" y="-120" type="line"/>
			<point x="506" y="-120" type="line"/>
			<point x="506" y="356" type="line" smooth="yes"/>
			<point x="506" y="532"/>
			<point x="393" y="580"/>
			<point x="282" y="580" type="curve" smooth="yes"/>
			<point x="170" y="580"/>
			<point x="58" y="532"/>
			<point x="58" y="356" type="curve" smooth="yes"/>
			<point x="58" y="258" type="line"/>
			<point x="206" y="258" type="line"/>
			<point x="206" y="312" type="line" smooth="yes"/>
			<point x="206" y="387"/>
			<point x="242" y="408"/>
			<point x="282" y="408" type="curve" smooth="yes"/>
			<point x="322" y="408"/>
			<point x="358" y="387"/>
			<point x="358" y="312" type="curve" smooth="yes"/>
		</contour>
	</outline>
</glyph>
<glyph name="pnQof" format="2">
	<unicode hex="10912"/>
	<advance width="694"/>
	<outline>
		<contour>
			<point x="286" y="-156" type="line"/>
			<point x="430" y="-156" type="line"/>
			<point x="430" y="532" type="line"/>
			<point x="286" y="532" type="line"/>
		</contour>
		<contour>
			<point x="358" y="12" type="curve" smooth="yes"/>
			<point x="541" y="12"/>
			<point x="666" y="110"/>
			<point x="666" y="280" type="curve" smooth="yes"/>
			<point x="666" y="450"/>
			<point x="541" y="544"/>
			<point x="358" y="544" type="curve" smooth="yes"/>
			<point x="173" y="544"/>
			<point x="48" y="451"/>
			<point x="48" y="280" type="curve" smooth="yes"/>
			<point x="48" y="110"/>
			<point x="173" y="12"/>
		</contour>
		<contour>
			<point x="358" y="174" type="curve" smooth="yes"/>
			<point x="254" y="174"/>
			<point x="196" y="215"/>
			<point x="196" y="280" type="curve" smooth="yes"/>
			<point x="196" y="347"/>
			<point x="254" y="382"/>
			<point x="358" y="382" type="curve" smooth="yes"/>
			<point x="459" y="382"/>
			<point x="518" y="347"/>
			<point x="518" y="280" type="curve" smooth="yes"/>
			<point x="518" y="215"/>
			<point x="459" y="174"/>
		</contour>
	</outline>
</glyph>
<glyph name="pnRosh" format="2">
	<unicode hex="10913"/>
	<advance width="566"/>
	<outline>
		<contour>
			<point x="346" y="-156" type="line"/>
			<point x="494" y="-156" type="line"/>
			<point x="494" y="532" type="line"/>
			<point x="300" y="532" type="line" smooth="yes"/>
			<point x="159" y="532"/>
			<point x="48" y="481"/>
			<point x="48" y="324" type="curve" smooth="yes"/>
			<point x="48" y="168"/>
			<point x="157" y="112"/>
			<point x="289" y="112" type="curve" smooth="yes"/>
			<point x="346" y="112" type="line"/>
		</contour>
		<contour>
			<point x="278" y="282" type="line" smooth="yes"/>
			<point x="228" y="282"/>
			<point x="196" y="293"/>
			<point x="196" y="324" type="curve" smooth="yes"/>
			<point x="196" y="353"/>
			<point x="228" y="362"/>
			<point x="278" y="362" type="curve" smooth="yes"/>
			<point x="346" y="362" type="line"/>
			<point x="346" y="282" type="line"/>
		</contour>
	</outline>
</glyph>
<glyph name="pnShin" format="2">
	<unicode hex="10914"/>
	<advance width="764"/>
	<outline>
		<contour>
			<point x="222" y="112" type="curve" smooth="yes"/>
			<point x="284" y="112"/>
			<point x="346" y="150"/>
			<point x="388" y="236" type="curve"/>
			<point x="362" y="236" type="line"/>
			<point x="390" y="146"/>
			<point x="436" y="112"/>
			<point x="502" y="112" type="curve" smooth="yes"/>
			<point x="646" y="112"/>
			<point x="756" y="298"/>
			<point x="756" y="532" type="curve"/>
			<point x="616" y="532" type="line"/>
			<point x="616" y="406"/>
			<point x="582" y="282"/>
			<point x="530" y="282" type="curve" smooth="yes"/>
			<point x="496" y="282"/>
			<point x="474" y="308"/>
			<point x="474" y="538" type="curve"/>
			<point x="324" y="522" type="line"/>
			<point x="324" y="396"/>
			<point x="295" y="282"/>
			<point x="250" y="282" type="curve" smooth="yes"/>
			<point x="210" y="282"/>
			<point x="184" y="308"/>
			<point x="184" y="540" type="curve"/>
			<point x="24" y="524" type="line"/>
			<point x="24" y="190"/>
			<point x="113" y="112"/>
		</contour>
	</outline>
</glyph>
<glyph name="pnTau" format="2">
	<unicode hex="10915"/>
	<advance width="556"/>
	<outline>
		<contour>
			<point x="204" y="0" type="line"/>
			<point x="352" y="0" type="line"/>
			<point x="352" y="200" type="line"/>
			<point x="516" y="200" type="line"/>
			<point x="516" y="372" type="line"/>
			<point x="352" y="372" type="line"/>
			<point x="352" y="568" type="line"/>
			<point x="204" y="568" type="line"/>
			<point x="204" y="372" type="line"/>
			<point x="40" y="372" type="line"/>
			<point x="40" y="200" type="line"/>
			<point x="204" y="200" type="line"/>
		</contour>
	</outline>
</glyph>
<glyph name="ampersand.S" format="2">
	<advance width="664"/>
	<outline>
		<contour>
			<point x="604" y="-12" type="curve"/>
			<point x="644" y="126" type="line"/>
			<point x="612" y="132"/>
			<point x="548" y="150"/>
			<point x="492" y="183" type="curve" smooth="yes"/>
			<point x="366" y="257"/>
			<point x="230" y="352"/>
			<point x="230" y="436" type="curve" smooth="yes"/>
			<point x="230" y="465"/>
			<point x="257" y="480"/>
			<point x="286" y="480" type="curve" smooth="yes"/>
			<point x="330" y="480"/>
			<point x="357" y="469"/>
			<point x="406" y="440" type="curve"/>
			<point x="464" y="560" type="line"/>
			<point x="404" y="602"/>
			<point x="358" y="620"/>
			<point x="286" y="620" type="curve" smooth="yes"/>
			<point x="169" y="620"/>
			<point x="96" y="538"/>
			<point x="96" y="444" type="curve" smooth="yes"/>
			<point x="96" y="330"/>
			<point x="230" y="174"/>
			<point x="389" y="75" type="curve" smooth="yes"/>
			<point x="459" y="31"/>
			<point x="534" y="0"/>
		</contour>
		<contour>
			<point x="250" y="-12" type="curve" smooth="yes"/>
			<point x="361" y="-12"/>
			<point x="430" y="36"/>
			<point x="490" y="104" type="curve" smooth="yes"/>
			<point x="562" y="186"/>
			<point x="606" y="278"/>
			<point x="632" y="374" type="curve"/>
			<point x="476" y="374" type="line"/>
			<point x="454" y="292"/>
			<point x="420" y="226"/>
			<point x="372" y="180" type="curve" smooth="yes"/>
			<point x="336" y="148"/>
			<point x="298" y="128"/>
			<point x="262" y="128" type="curve" smooth="yes"/>
			<point x="200" y="128"/>
			<point x="162" y="148"/>
			<point x="162" y="194" type="curve" smooth="yes"/>
			<point x="162" y="229"/>
			<point x="183" y="252"/>
			<point x="237" y="281" type="curve"/>
			<point x="175" y="380" type="line"/>
			<point x="92" y="341"/>
			<point x="22" y="278"/>
			<point x="22" y="176" type="curve" smooth="yes"/>
			<point x="22" y="64"/>
			<point x="105" y="-12"/>
		</contour>
	</outline>
</glyph>
<glyph name="dong.S" format="2">
	<advance width="540"/>
	<outline>
		<contour>
			<point x="226" y="118" type="curve" smooth="yes"/>
			<point x="266" y="118"/>
			<point x="304" y="134"/>
			<point x="330" y="162" type="curve"/>
			<point x="332" y="162" type="line"/>
			<point x="342" y="128" type="line"/>
			<point x="458" y="128" type="line"/>
			<point x="458" y="678" type="line"/>
			<point x="318" y="678" type="line"/>
			<point x="318" y="544" type="line"/>
			<point x="322" y="472" type="line"/>
			<point x="296" y="496"/>
			<point x="272" y="508"/>
			<point x="230" y="508" type="curve" smooth="yes"/>
			<point x="150" y="508"/>
			<point x="64" y="446"/>
			<point x="64" y="318" type="curve" smooth="yes"/>
			<point x="64" y="182"/>
			<point x="128" y="118"/>
		</contour>
		<contour>
			<point x="262" y="246" type="curve" smooth="yes"/>
			<point x="230" y="246"/>
			<point x="208" y="266"/>
			<point x="208" y="312" type="curve" smooth="yes"/>
			<point x="208" y="358"/>
			<point x="238" y="378"/>
			<point x="266" y="378" type="curve" smooth="yes"/>
			<point x="286" y="378"/>
			<point x="302" y="372"/>
			<point x="318" y="358" type="curve"/>
			<point x="318" y="276" type="line"/>
			<point x="300" y="254"/>
			<point x="286" y="246"/>
		</contour>
		<contour>
			<point x="174" y="552" type="line"/>
			<point x="458" y="552" type="line"/>
			<point x="529" y="558" type="line"/>
			<point x="529" y="636" type="line"/>
			<point x="174" y="636" type="line"/>
		</contour>
		<contour>
			<point x="78" y="0" type="line"/>
			<point x="492" y="0" type="line"/>
			<point x="492" y="84" type="line"/>
			<point x="78" y="84" type="line"/>
		</contour>
	</outline>
</glyph>
<glyph name="heDagesh.shin" format="2">
	<outline>
		<contour>
			<point x="0" y="294" type="curve" smooth="yes"/>
			<point x="-23" y="294"/>
			<point x="-44" y="276"/>
			<point x="-44" y="250" type="curve" smooth="yes"/>
			<point x="-44" y="223"/>
			<point x="-23" y="206"/>
			<point x="0" y="206" type="curve" smooth="yes"/>
			<point x="23" y="206"/>
			<point x="44" y="222"/>
			<point x="44" y="250" type="curve" smooth="yes"/>
			<point x="44" y="276"/>
			<point x="23" y="294"/>
		</contour>
	</outline>
	<anchor name="_centerHE" x="0" y="250"/>
	<guideline y="285" identifier="0UuHlBomrk"/>
</glyph>
<glyph name="heQamats.short" format="2">
	<outline>
		<contour>
			<point x="85" y="-80" type="line"/>
			<point x="-87" y="-80" type="line"/>
			<point x="-87" y="-132" type="line"/>
			<point x="-22" y="-132" type="line"/>
			<point x="-31" y="-234" type="line"/>
			<point x="31" y="-234" type="line"/>
			<point x="22" y="-132" type="line"/>
			<point x="85" y="-132" type="line"/>
		</contour>
	</outline>
	<anchor name="_belowPrimaryHE" x="0" y="-30"/>
	<anchor name="_belowLeftHE" x="-85" y="-30"/>
	<anchor name="_belowRightHE" x="85" y="-30"/>
	<anchor name="belowPrimaryHE" x="-155" y="-30"/>
	<anchor name="_belowSecondaryHE" x="0" y="-30"/>
</glyph>
<glyph name="heSamekh.5" format="2">
	<advance width="650"/>
	<outline>
		<contour>
			<point x="332" y="-12" type="curve" smooth="yes"/>
			<point x="496" y="-12"/>
			<point x="612" y="136"/>
			<point x="612" y="364" type="curve" smooth="yes"/>
			<point x="612" y="506"/>
			<point x="568" y="568"/>
			<point x="434" y="568" type="curve" smooth="yes"/>
			<point x="24" y="568" type="line"/>
			<point x="24" y="396" type="line"/>
			<point x="390" y="396" type="line" smooth="yes"/>
			<point x="446" y="396"/>
			<point x="464" y="372"/>
			<point x="464" y="324" type="curve" smooth="yes"/>
			<point x="464" y="226"/>
			<point x="414" y="158"/>
			<point x="350" y="158" type="curve" smooth="yes"/>
			<point x="284" y="158"/>
			<point x="242" y="186"/>
			<point x="242" y="298" type="curve" smooth="yes"/>
			<point x="242" y="396" type="line"/>
			<point x="118" y="396" type="line"/>
			<point x="106" y="357"/>
			<point x="96" y="320"/>
			<point x="96" y="270" type="curve" smooth="yes"/>
			<point x="96" y="234" type="line" smooth="yes"/>
			<point x="96" y="56"/>
			<point x="194" y="-12"/>
		</contour>
	</outline>
	<anchor name="aboveHE" x="310" y="530"/>
	<anchor name="belowPrimaryHE" x="320" y="-30"/>
	<anchor name="centerHE" x="310" y="260"/>
	<anchor name="aboveLeftHE" x="15" y="530"/>
</glyph>
<glyph name="heShin.3" format="2">
	<advance width="768"/>
	<outline>
		<contour>
			<point x="362" y="-12" type="curve" smooth="yes"/>
			<point x="568" y="-12"/>
			<point x="730" y="162"/>
			<point x="730" y="398" type="curve" smooth="yes"/>
			<point x="730" y="532"/>
			<point x="682" y="568"/>
			<point x="552" y="568" type="curve" smooth="yes"/>
			<point x="510" y="568" type="line"/>
			<point x="510" y="396" type="line"/>
			<point x="528" y="396" type="line" smooth="yes"/>
			<point x="570" y="396"/>
			<point x="586" y="372"/>
			<point x="586" y="324" type="curve" smooth="yes"/>
			<point x="586" y="236"/>
			<point x="493" y="152"/>
			<point x="400" y="152" type="curve" smooth="yes"/>
			<point x="281" y="152"/>
			<point x="227" y="184"/>
			<point x="222" y="318" type="curve" smooth="yes"/>
			<point x="222" y="398" type="line" smooth="yes"/>
			<point x="222" y="532"/>
			<point x="175" y="568"/>
			<point x="56" y="568" type="curve" smooth="yes"/>
			<point x="14" y="568" type="line"/>
			<point x="14" y="396" type="line"/>
			<point x="22" y="396" type="line" smooth="yes"/>
			<point x="61" y="396"/>
			<point x="74" y="380"/>
			<point x="74" y="344" type="curve" smooth="yes"/>
			<point x="74" y="254" type="line" smooth="yes"/>
			<point x="76" y="61"/>
			<point x="198" y="-12"/>
		</contour>
		<contour>
			<point x="390" y="120" type="line"/>
			<point x="466" y="249"/>
			<point x="486" y="342"/>
			<point x="486" y="398" type="curve" smooth="yes"/>
			<point x="486" y="532"/>
			<point x="438" y="568"/>
			<point x="318" y="568" type="curve" smooth="yes"/>
			<point x="276" y="568" type="line"/>
			<point x="276" y="396" type="line"/>
			<point x="284" y="396" type="line" smooth="yes"/>
			<point x="328" y="396"/>
			<point x="342" y="376"/>
			<point x="342" y="334" type="curve" smooth="yes"/>
			<point x="342" y="300"/>
			<point x="330" y="256"/>
			<point x="276" y="166" type="curve"/>
		</contour>
	</outline>
	<anchor name="aboveHE" x="335" y="530"/>
	<anchor name="belowPrimaryHE" x="355" y="-30"/>
	<anchor name="sinHE" x="100" y="500"/>
	<anchor name="centerHE" x="420" y="260"/>
	<anchor name="shinHE" x="515" y="500"/>
	<anchor name="aboveLeftHE" x="0" y="530"/>
</glyph>
<glyph name="heTet.2" format="2">
	<advance width="646"/>
	<outline>
		<contour>
			<point x="322" y="-12" type="curve" smooth="yes"/>
			<point x="490" y="-12"/>
			<point x="608" y="166"/>
			<point x="608" y="364" type="curve" smooth="yes"/>
			<point x="608" y="506"/>
			<point x="564" y="568"/>
			<point x="430" y="568" type="curve" smooth="yes"/>
			<point x="318" y="568" type="line"/>
			<point x="318" y="396" type="line"/>
			<point x="386" y="396" type="line" smooth="yes"/>
			<point x="441" y="396"/>
			<point x="460" y="372"/>
			<point x="460" y="324" type="curve" smooth="yes"/>
			<point x="460" y="246"/>
			<point x="416" y="158"/>
			<point x="340" y="158" type="curve" smooth="yes"/>
			<point x="286" y="158"/>
			<point x="252" y="182"/>
			<point x="236" y="308" type="curve" smooth="yes"/>
			<point x="222" y="422"/>
			<point x="182" y="448"/>
			<point x="56" y="448" type="curve" smooth="yes"/>
			<point x="14" y="448" type="line"/>
			<point x="14" y="396" type="line"/>
			<point x="22" y="396" type="line" smooth="yes"/>
			<point x="66" y="396"/>
			<point x="74" y="382"/>
			<point x="82" y="284" type="curve" smooth="yes"/>
			<point x="100" y="73"/>
			<point x="206" y="-12"/>
		</contour>
		<contour>
			<point x="14" y="396" type="line"/>
			<point x="264" y="396" type="line"/>
			<point x="264" y="568" type="line"/>
			<point x="14" y="568" type="line"/>
		</contour>
	</outline>
	<anchor name="aboveHE" x="310" y="530"/>
	<anchor name="belowPrimaryHE" x="320" y="-30"/>
	<anchor name="centerHE" x="310" y="260"/>
	<anchor name="aboveLeftHE" x="15" y="530"/>
</glyph>
<glyph name="hryvnia.S" format="2">
	<advance width="540"/>
	<outline>
		<contour>
			<point x="284" y="-12" type="curve" smooth="yes"/>
			<point x="357" y="-12"/>
			<point x="434" y="9"/>
			<point x="502" y="62" type="curve"/>
			<point x="436" y="174" type="line"/>
			<point x="375" y="136"/>
			<point x="341" y="128"/>
			<point x="300" y="128" type="curve" smooth="yes"/>
			<point x="250" y="128"/>
			<point x="230" y="136"/>
			<point x="230" y="160" type="curve" smooth="yes"/>
			<point x="230" y="260"/>
			<point x="464" y="246"/>
			<point x="464" y="412" type="curve" smooth="yes"/>
			<point x="464" y="516"/>
			<point x="384" y="580"/>
			<point x="262" y="580" type="curve" smooth="yes"/>
			<point x="194" y="580"/>
			<point x="131" y="565"/>
			<point x="74" y="520" type="curve"/>
			<point x="140" y="408" type="line"/>
			<point x="189" y="432"/>
			<point x="218" y="440"/>
			<point x="256" y="440" type="curve" smooth="yes"/>
			<point x="290" y="440"/>
			<point x="310" y="436"/>
			<point x="310" y="412" type="curve" smooth="yes"/>
			<point x="310" y="316"/>
			<point x="76" y="334"/>
			<point x="76" y="164" type="curve" smooth="yes"/>
			<point x="76" y="63"/>
			<point x="148" y="-12"/>
		</contour>
		<contour>
			<point x="20" y="306" type="line"/>
			<point x="512" y="306" type="line"/>
			<point x="512" y="390" type="line"/>
			<point x="96" y="390" type="line"/>
			<point x="20" y="384" type="line"/>
		</contour>
		<contour>
			<point x="20" y="178" type="line"/>
			<point x="512" y="178" type="line"/>
			<point x="512" y="262" type="line"/>
			<point x="96" y="262" type="line"/>
			<point x="20" y="256" type="line"/>
		</contour>
	</outline>
</glyph>
<glyph name="hyphentwo.lat" format="2">
	<advance width="340"/>
	<outline>
		<contour>
			<point x="44" y="194" type="line"/>
			<point x="296" y="194" type="line"/>
			<point x="296" y="314" type="line"/>
			<point x="44" y="314" type="line"/>
		</contour>
	</outline>
</glyph>
<glyph name="lira.S" format="2">
	<advance width="540"/>
	<outline>
		<contour>
			<point x="46" y="0" type="line"/>
			<point x="514" y="0" type="line"/>
			<point x="514" y="134" type="line"/>
			<point x="260" y="134" type="line"/>
			<point x="260" y="138" type="line"/>
			<point x="282" y="170"/>
			<point x="292" y="208"/>
			<point x="292" y="246" type="curve" smooth="yes"/>
			<point x="292" y="292"/>
			<point x="256" y="322"/>
			<point x="256" y="368" type="curve" smooth="yes"/>
			<point x="256" y="412"/>
			<point x="283" y="440"/>
			<point x="330" y="440" type="curve" smooth="yes"/>
			<point x="364" y="440"/>
			<point x="390" y="431"/>
			<point x="436" y="408" type="curve"/>
			<point x="502" y="520" type="line"/>
			<point x="446" y="565"/>
			<point x="382" y="580"/>
			<point x="314" y="580" type="curve" smooth="yes"/>
			<point x="186" y="580"/>
			<point x="102" y="514"/>
			<point x="102" y="408" type="curve" smooth="yes"/>
			<point x="102" y="348"/>
			<point x="152" y="304"/>
			<point x="152" y="250" type="curve" smooth="yes"/>
			<point x="152" y="184"/>
			<point x="102" y="140"/>
			<point x="46" y="116" type="curve"/>
		</contour>
		<contour>
			<point x="52" y="178" type="line"/>
			<point x="424" y="178" type="line"/>
			<point x="424" y="262" type="line"/>
			<point x="128" y="262" type="line"/>
			<point x="52" y="256" type="line"/>
		</contour>
		<contour>
			<point x="52" y="306" type="line"/>
			<point x="424" y="306" type="line"/>
			<point x="424" y="390" type="line"/>
			<point x="108" y="390" type="line"/>
			<point x="52" y="384" type="line"/>
		</contour>
	</outline>
</glyph>
<glyph name="naira.S" format="2">
	<advance width="540"/>
	<outline>
		<contour>
			<point x="68" y="0" type="line"/>
			<point x="190" y="0" type="line"/>
			<point x="190" y="234" type="line"/>
			<point x="158" y="445" type="line"/>
			<point x="162" y="445" type="line"/>
			<point x="244" y="216" type="line"/>
			<point x="316" y="0" type="line"/>
			<point x="472" y="0" type="line"/>
			<point x="472" y="568" type="line"/>
			<point x="350" y="568" type="line"/>
			<point x="350" y="334" type="line"/>
			<point x="382" y="123" type="line"/>
			<point x="378" y="123" type="line"/>
			<point x="296" y="352" type="line"/>
			<point x="224" y="568" type="line"/>
			<point x="68" y="568" type="line"/>
		</contour>
		<contour>
			<point x="0" y="306" type="line"/>
			<point x="540" y="306" type="line"/>
			<point x="540" y="390" type="line"/>
			<point x="68" y="390" type="line"/>
			<point x="0" y="384" type="line"/>
		</contour>
		<contour>
			<point x="0" y="178" type="line"/>
			<point x="540" y="178" type="line"/>
			<point x="540" y="262" type="line"/>
			<point x="68" y="262" type="line"/>
			<point x="0" y="256" type="line"/>
		</contour>
	</outline>
</glyph>
<glyph name="newsheqel.P" format="2">
	<advance width="880"/>
	<outline>
		<contour>
			<point x="68" y="0" type="line"/>
			<point x="228" y="0" type="line"/>
			<point x="228" y="450" type="line"/>
			<point x="360" y="450" type="line" smooth="yes"/>
			<point x="419" y="450"/>
			<point x="456" y="428"/>
			<point x="456" y="358" type="curve" smooth="yes"/>
			<point x="456" y="196" type="line"/>
			<point x="616" y="196" type="line"/>
			<point x="616" y="400" type="line" smooth="yes"/>
			<point x="616" y="523"/>
			<point x="547" y="568"/>
			<point x="438" y="568" type="curve" smooth="yes"/>
			<point x="68" y="568" type="line"/>
		</contour>
		<contour>
			<point x="264" y="0" type="line"/>
			<point x="634" y="0" type="line" smooth="yes"/>
			<point x="743" y="0"/>
			<point x="812" y="45"/>
			<point x="812" y="168" type="curve" smooth="yes"/>
			<point x="812" y="568" type="line"/>
			<point x="652" y="568" type="line"/>
			<point x="652" y="210" type="line" smooth="yes"/>
			<point x="652" y="140"/>
			<point x="614" y="118"/>
			<point x="554" y="118" type="curve" smooth="yes"/>
			<point x="424" y="118" type="line"/>
			<point x="424" y="372" type="line"/>
			<point x="264" y="372" type="line"/>
		</contour>
	</outline>
	<guideline x="270" y="284" angle="90" identifier="51LWLohGsJ"/>
</glyph>
<glyph name="nine.ph" format="2">
	<advance width="540"/>
	<outline>
		<contour>
			<point x="238" y="-78" type="curve" smooth="yes"/>
			<point x="374" y="-78"/>
			<point x="500" y="32"/>
			<point x="500" y="262" type="curve" smooth="yes"/>
			<point x="500" y="492"/>
			<point x="374" y="580"/>
			<point x="252" y="580" type="curve" smooth="yes"/>
			<point x="132" y="580"/>
			<point x="32" y="500"/>
			<point x="32" y="364" type="curve" smooth="yes"/>
			<point x="32" y="228"/>
			<point x="116" y="168"/>
			<point x="224" y="168" type="curve" smooth="yes"/>
			<point x="261" y="168"/>
			<point x="320" y="194"/>
			<point x="350" y="240" type="curve"/>
			<point x="342" y="348" type="line"/>
			<point x="319" y="304"/>
			<point x="288" y="288"/>
			<point x="258" y="288" type="curve" smooth="yes"/>
			<point x="222" y="288"/>
			<point x="188" y="303"/>
			<point x="188" y="364" type="curve" smooth="yes"/>
			<point x="188" y="431"/>
			<point x="220" y="452"/>
			<point x="256" y="452" type="curve" smooth="yes"/>
			<point x="295" y="452"/>
			<point x="344" y="420"/>
			<point x="344" y="262" type="curve" smooth="yes"/>
			<point x="344" y="110"/>
			<point x="294" y="60"/>
			<point x="226" y="60" type="curve" smooth="yes"/>
			<point x="190" y="60"/>
			<point x="150" y="82"/>
			<point x="130" y="104" type="curve"/>
			<point x="40" y="2" type="line"/>
			<point x="82" y="-40"/>
			<point x="148" y="-78"/>
		</contour>
	</outline>
</glyph>
<glyph name="one.Dnom" format="2">
	<advance width="380"/>
	<outline>
		<contour>
			<point x="172" y="0" type="line"/>
			<point x="278" y="0" type="line"/>
			<point x="278" y="370" type="line"/>
			<point x="190" y="370" type="line"/>
			<point x="154" y="346"/>
			<point x="130" y="334"/>
			<point x="72" y="326" type="curve"/>
			<point x="72" y="250" type="line"/>
			<point x="172" y="250" type="line"/>
		</contour>
	</outline>
</glyph>
<glyph name="one.P" format="2">
	<advance width="426"/>
	<outline>
		<contour>
			<point x="166" y="0" type="line"/>
			<point x="314" y="0" type="line"/>
			<point x="314" y="568" type="line"/>
			<point x="200" y="568" type="line"/>
			<point x="152" y="538"/>
			<point x="106" y="520"/>
			<point x="34" y="506" type="curve"/>
			<point x="34" y="394" type="line"/>
			<point x="166" y="394" type="line"/>
		</contour>
	</outline>
</glyph>
<glyph name="one.he" format="2">
	<advance width="540"/>
	<outline>
		<contour>
			<point x="66" y="0" type="line"/>
			<point x="488" y="0" type="line"/>
			<point x="488" y="138" type="line"/>
			<point x="374" y="138" type="line"/>
			<point x="374" y="568" type="line"/>
			<point x="248" y="568" type="line"/>
			<point x="200" y="538"/>
			<point x="154" y="520"/>
			<point x="82" y="506" type="curve"/>
			<point x="82" y="400" type="line"/>
			<point x="202" y="400" type="line"/>
			<point x="202" y="138" type="line"/>
			<point x="66" y="138" type="line"/>
		</contour>
	</outline>
</glyph>
<glyph name="peso.S" format="2">
	<advance width="540"/>
	<outline>
		<contour>
			<point x="72" y="0" type="line"/>
			<point x="220" y="0" type="line"/>
			<point x="220" y="118" type="line"/>
			<point x="250" y="118" type="line" smooth="yes"/>
			<point x="372" y="118"/>
			<point x="480" y="188"/>
			<point x="480" y="340" type="curve" smooth="yes"/>
			<point x="480" y="510"/>
			<point x="376" y="568"/>
			<point x="250" y="568" type="curve" smooth="yes"/>
			<point x="72" y="568" type="line"/>
		</contour>
		<contour>
			<point x="220" y="224" type="line"/>
			<point x="220" y="462" type="line"/>
			<point x="246" y="462" type="line" smooth="yes"/>
			<point x="306" y="462"/>
			<point x="336" y="424"/>
			<point x="336" y="340" type="curve" smooth="yes"/>
			<point x="336" y="272"/>
			<point x="306" y="224"/>
			<point x="246" y="224" type="curve" smooth="yes"/>
		</contour>
		<contour>
			<point x="14" y="258" type="line"/>
			<point x="532" y="258" type="line"/>
			<point x="532" y="322" type="line"/>
			<point x="90" y="322" type="line"/>
			<point x="14" y="316" type="line"/>
		</contour>
		<contour>
			<point x="14" y="366" type="line"/>
			<point x="532" y="366" type="line"/>
			<point x="532" y="430" type="line"/>
			<point x="90" y="430" type="line"/>
			<point x="14" y="424" type="line"/>
		</contour>
	</outline>
</glyph>
<glyph name="pnBet" format="2">
	<advance width="610"/>
	<outline>
		<contour>
			<point x="108" y="0" type="line"/>
			<point x="518" y="0" type="line"/>
			<point x="518" y="568" type="line"/>
			<point x="292" y="568" type="line" smooth="yes"/>
			<point x="179" y="568"/>
			<point x="72" y="522"/>
			<point x="72" y="384" type="curve" smooth="yes"/>
			<point x="72" y="234"/>
			<point x="179" y="198"/>
			<point x="295" y="198" type="curve" smooth="yes"/>
			<point x="370" y="198" type="line"/>
			<point x="370" y="172" type="line"/>
			<point x="108" y="172" type="line"/>
		</contour>
		<contour>
			<point x="272" y="350" type="line" smooth="yes"/>
			<point x="250" y="350"/>
			<point x="238" y="356"/>
			<point x="238" y="376" type="curve" smooth="yes"/>
			<point x="238" y="388"/>
			<point x="249" y="396"/>
			<point x="272" y="396" type="curve" smooth="yes"/>
			<point x="370" y="396" type="line"/>
			<point x="370" y="350" type="line"/>
		</contour>
	</outline>
</glyph>
<glyph name="pnWau" format="2">
	<advance width="656"/>
	<outline>
		<contour>
			<point x="262" y="0" type="line"/>
			<point x="394" y="0" type="line"/>
			<point x="394" y="248" type="line"/>
			<point x="262" y="248" type="line"/>
		</contour>
		<contour>
			<point x="320" y="176" type="curve" smooth="yes"/>
			<point x="336" y="176" type="line" smooth="yes"/>
			<point x="468" y="176"/>
			<point x="568" y="242"/>
			<point x="568" y="416" type="curve" smooth="yes"/>
			<point x="568" y="568" type="line"/>
			<point x="428" y="568" type="line"/>
			<point x="428" y="468" type="line" smooth="yes"/>
			<point x="428" y="366"/>
			<point x="392" y="348"/>
			<point x="332" y="348" type="curve" smooth="yes"/>
			<point x="324" y="348" type="line" smooth="yes"/>
			<point x="263" y="348"/>
			<point x="228" y="366"/>
			<point x="228" y="468" type="curve" smooth="yes"/>
			<point x="228" y="568" type="line"/>
			<point x="88" y="568" type="line"/>
			<point x="88" y="416" type="line" smooth="yes"/>
			<point x="88" y="242"/>
			<point x="188" y="176"/>
		</contour>
	</outline>
</glyph>
<glyph name="pnYod" format="2">
	<advance width="376"/>
	<outline>
		<contour>
			<point x="82" y="206" type="line"/>
			<point x="254" y="206" type="line"/>
			<point x="254" y="330" type="line"/>
			<point x="82" y="330" type="line"/>
		</contour>
		<component base="pnZai"/>
	</outline>
</glyph>
<glyph name="pnZai" format="2">
	<advance width="483"/>
	<outline>
		<contour>
			<point x="32" y="0" type="line"/>
			<point x="512" y="0" type="line"/>
			<point x="512" y="172" type="line"/>
			<point x="264" y="172" type="line"/>
			<point x="510" y="464" type="line"/>
			<point x="510" y="568" type="line"/>
			<point x="58" y="568" type="line"/>
			<point x="58" y="396" type="line"/>
			<point x="278" y="396" type="line"/>
			<point x="32" y="104" type="line"/>
		</contour>
	</outline>
</glyph>
<glyph name="section.S" format="2">
	<advance width="540"/>
	<outline>
		<contour>
			<point x="242" y="-174" type="curve" smooth="yes"/>
			<point x="379" y="-174"/>
			<point x="446" y="-102"/>
			<point x="446" y="-8" type="curve" smooth="yes"/>
			<point x="446" y="166"/>
			<point x="178" y="156"/>
			<point x="178" y="250" type="curve" smooth="yes"/>
			<point x="178" y="279"/>
			<point x="197" y="302"/>
			<point x="238" y="314" type="curve"/>
			<point x="152" y="384" type="line"/>
			<point x="80" y="360"/>
			<point x="34" y="296"/>
			<point x="34" y="238" type="curve" smooth="yes"/>
			<point x="34" y="48"/>
			<point x="292" y="48"/>
			<point x="292" y="-16" type="curve" smooth="yes"/>
			<point x="292" y="-36"/>
			<point x="278" y="-48"/>
			<point x="242" y="-48" type="curve" smooth="yes"/>
			<point x="208" y="-48"/>
			<point x="170" y="-32"/>
			<point x="138" y="2" type="curve"/>
			<point x="40" y="-84" type="line"/>
			<point x="86" y="-146"/>
			<point x="168" y="-174"/>
		</contour>
		<contour>
			<point x="400" y="54" type="line"/>
			<point x="470" y="88"/>
			<point x="506" y="138"/>
			<point x="506" y="202" type="curve" smooth="yes"/>
			<point x="506" y="382"/>
			<point x="238" y="398"/>
			<point x="238" y="454" type="curve" smooth="yes"/>
			<point x="238" y="476"/>
			<point x="253" y="484"/>
			<point x="282" y="484" type="curve" smooth="yes"/>
			<point x="313" y="484"/>
			<point x="353" y="463"/>
			<point x="384" y="436" type="curve"/>
			<point x="462" y="542" type="line"/>
			<point x="420" y="575"/>
			<point x="354" y="610"/>
			<point x="272" y="610" type="curve" smooth="yes"/>
			<point x="155" y="610"/>
			<point x="84" y="546"/>
			<point x="84" y="448" type="curve" smooth="yes"/>
			<point x="84" y="272"/>
			<point x="362" y="286"/>
			<point x="362" y="188" type="curve" smooth="yes"/>
			<point x="362" y="157"/>
			<point x="344" y="136"/>
			<point x="302" y="122" type="curve"/>
		</contour>
	</outline>
</glyph>
<glyph name="seven.P" format="2">
	<advance width="526"/>
	<outline>
		<contour>
			<point x="152" y="-40" type="curve"/>
			<point x="324" y="-40" type="line"/>
			<point x="336" y="188"/>
			<point x="350" y="304"/>
			<point x="484" y="462" type="curve"/>
			<point x="484" y="568" type="line"/>
			<point x="44" y="568" type="line"/>
			<point x="44" y="424" type="line"/>
			<point x="302" y="424" type="line"/>
			<point x="198" y="274"/>
			<point x="166" y="144"/>
		</contour>
	</outline>
</glyph>
<glyph name="tenge.S" format="2">
	<advance width="540"/>
	<outline>
		<contour>
			<point x="184" y="0" type="line"/>
			<point x="356" y="0" type="line"/>
			<point x="356" y="356" type="line"/>
			<point x="508" y="356" type="line"/>
			<point x="508" y="440" type="line"/>
			<point x="108" y="440" type="line"/>
			<point x="32" y="434" type="line"/>
			<point x="32" y="356" type="line"/>
			<point x="184" y="356" type="line"/>
		</contour>
		<contour>
			<point x="32" y="484" type="line"/>
			<point x="508" y="484" type="line"/>
			<point x="508" y="568" type="line"/>
			<point x="32" y="568" type="line"/>
		</contour>
	</outline>
</glyph>
<glyph name="tugrik.S" format="2">
	<advance width="540"/>
	<outline>
		<contour>
			<point x="184" y="0" type="line"/>
			<point x="356" y="0" type="line"/>
			<point x="356" y="444" type="line"/>
			<point x="508" y="444" type="line"/>
			<point x="508" y="568" type="line"/>
			<point x="32" y="568" type="line"/>
			<point x="32" y="444" type="line"/>
			<point x="184" y="444" type="line"/>
		</contour>
		<contour>
			<point x="112" y="16" type="line"/>
			<point x="200" y="64" type="line"/>
			<point x="340" y="142" type="line"/>
			<point x="466" y="210" type="line"/>
			<point x="430" y="282" type="line"/>
			<point x="340" y="232" type="line"/>
			<point x="200" y="154" type="line"/>
			<point x="76" y="88" type="line"/>
		</contour>
		<contour>
			<point x="112" y="156" type="line"/>
			<point x="200" y="204" type="line"/>
			<point x="340" y="282" type="line"/>
			<point x="466" y="350" type="line"/>
			<point x="430" y="422" type="line"/>
			<point x="340" y="372" type="line"/>
			<point x="200" y="294" type="line"/>
			<point x="76" y="228" type="line"/>
		</contour>
	</outline>
</glyph>
<glyph name="two.Dnom" format="2">
	<advance width="380"/>
	<outline>
		<contour>
			<point x="42" y="0" type="line"/>
			<point x="334" y="0" type="line"/>
			<point x="334" y="112" type="line"/>
			<point x="230" y="112" type="line"/>
			<point x="280" y="160"/>
			<point x="320" y="208"/>
			<point x="320" y="258" type="curve" smooth="yes"/>
			<point x="320" y="336"/>
			<point x="265" y="382"/>
			<point x="182" y="382" type="curve" smooth="yes"/>
			<point x="130" y="382"/>
			<point x="84" y="370"/>
			<point x="36" y="330" type="curve"/>
			<point x="98" y="244" type="line"/>
			<point x="127" y="263"/>
			<point x="145" y="270"/>
			<point x="175" y="270" type="curve" smooth="yes"/>
			<point x="200" y="270"/>
			<point x="216" y="256"/>
			<point x="216" y="234" type="curve" smooth="yes"/>
			<point x="216" y="200"/>
			<point x="138" y="141"/>
			<point x="42" y="84" type="curve"/>
		</contour>
	</outline>
</glyph>
<glyph name="ugword" format="2">
	<advance width="314"/>
	<outline>
		<contour>
			<point x="139" y="162" type="curve"/>
			<point x="197" y="162" type="line"/>
			<point x="197" y="202"/>
			<point x="221" y="320"/>
			<point x="293" y="406" type="curve"/>
			<point x="43" y="406" type="line"/>
			<point x="115" y="320"/>
			<point x="139" y="202"/>
		</contour>
	</outline>
</glyph>
<glyph name="yuan.S" format="2">
	<advance width="540"/>
	<outline>
		<contour>
			<point x="196" y="0" type="line"/>
			<point x="344" y="0" type="line"/>
			<point x="344" y="208" type="line"/>
			<point x="506" y="208" type="line"/>
			<point x="506" y="312" type="line"/>
			<point x="382" y="312" type="line"/>
			<point x="532" y="568" type="line"/>
			<point x="360" y="568" type="line"/>
			<point x="328" y="490" type="line" smooth="yes"/>
			<point x="310" y="446"/>
			<point x="289" y="400"/>
			<point x="274" y="356" type="curve"/>
			<point x="270" y="356" type="line"/>
			<point x="254" y="400"/>
			<point x="234" y="446"/>
			<point x="216" y="490" type="curve" smooth="yes"/>
			<point x="184" y="568" type="line"/>
			<point x="8" y="568" type="line"/>
			<point x="158" y="312" type="line"/>
			<point x="102" y="312" type="line"/>
			<point x="34" y="306" type="line"/>
			<point x="34" y="208" type="line"/>
			<point x="196" y="208" type="line"/>
		</contour>
	</outline>
</glyph>
<glyph name="zero.P" format="2">
	<advance width="596"/>
	<outline>
		<contour>
			<point x="298" y="-12" type="curve" smooth="yes"/>
			<point x="434" y="-12"/>
			<point x="544" y="94"/>
			<point x="544" y="288" type="curve" smooth="yes"/>
			<point x="544" y="482"/>
			<point x="434" y="580"/>
			<point x="298" y="580" type="curve" smooth="yes"/>
			<point x="162" y="580"/>
			<point x="52" y="482"/>
			<point x="52" y="288" type="curve" smooth="yes"/>
			<point x="52" y="94"/>
			<point x="162" y="-12"/>
		</contour>
		<contour>
			<point x="298" y="138" type="curve" smooth="yes"/>
			<point x="248" y="138"/>
			<point x="196" y="184"/>
			<point x="196" y="288" type="curve" smooth="yes"/>
			<point x="196" y="394"/>
			<point x="248" y="430"/>
			<point x="298" y="430" type="curve" smooth="yes"/>
			<point x="348" y="430"/>
			<point x="400" y="394"/>
			<point x="400" y="288" type="curve" smooth="yes"/>
			<point x="400" y="184"/>
			<point x="348" y="138"/>
		</contour>
	</outline>
</glyph>
